<svg width="477" height="463" viewBox="0 0 477 463" fill="none" xmlns="http://www.w3.org/2000/svg">
<path d="M296.558 209.252C263.64 208.907 249.392 151.249 259.389 111.973C260.25 98.0363 270.856 102.178 267.056 115.252C260.144 147.625 269.108 196.762 296.902 197.798C332.244 196.364 340.109 122.764 317.202 91.4528C308.237 82.135 317.175 70.5475 323.465 82.7588C348.518 114.03 342.943 209.159 296.558 209.252Z" fill="#F4972E"/>
<path d="M296.558 209.318C275.782 208.854 264.659 187.179 259.839 169.499C254.847 150.784 254.171 130.715 258.846 111.84C259.058 109.345 259.587 105.031 262.368 103.266C266.049 101.222 268.419 106.146 268.353 109.199C268.472 111.256 268.062 113.552 267.532 115.371C265.837 123.242 265.188 131.325 265.255 139.382C265.625 157.593 269.545 183.024 285.633 194.001C299.338 202.841 313.957 193.351 320.617 180.396C333.634 155.589 332.932 115.039 316.671 91.864C313.877 89.1164 311.428 83.8204 313.493 79.573C314.434 77.2369 317.519 75.9892 319.717 77.3962C321.73 78.3784 323.385 81.0596 324.007 82.3338C331.714 92.3816 335.223 104.872 337.249 117.189C342.254 147.107 335.964 208.071 296.558 209.318ZM296.558 209.186C345.829 208.296 347.352 104.447 319.042 78.6306C317.347 77.6484 315.493 78.4581 314.725 80.1836C312.99 83.8868 315.056 88.2802 317.731 91.0543C329.675 108.376 332.005 130.569 330.006 151.023C328.086 166.154 323.636 182.692 311.348 192.714C303.549 198.7 293.75 199.934 285.355 194.373C269.121 183.011 264.99 157.951 264.447 139.369C264.314 131.259 264.924 123.109 266.579 115.145C267.108 113.207 267.466 111.203 267.333 109.239C267.281 106.916 265.837 102.642 262.898 104.168C260.541 105.894 260.183 109.278 259.931 112.066C255.443 130.781 255.827 150.664 260.501 169.326C265.003 186.98 275.874 208.642 296.558 209.186Z" fill="#F4972E"/>
<path d="M63.6913 26.1084C86.9302 18.7683 113.625 22.4582 136.785 25.75C153.946 23.8785 174.682 0 191.869 0C201.522 3.5174 193.961 80.3957 207.163 80.0904C211.837 79.9842 212.341 75.6572 214.022 72.6707C256.077 -11.8397 390.36 2.64137 411.506 95.6732C416.71 118.649 443.313 106.77 460.05 109.477C494.292 109.411 472.1 214.309 405.72 209.942C396.001 210.327 388.493 212.159 382.878 221.038C350.264 275.246 297.364 306.743 240.744 330.741C209.6 347.532 182.057 334.684 154.515 322.592C28.0054 272.379 -7.53487 157.978 3.00538 51.5C0.237904 -29.5594 10.3147 5.26946 63.6913 26.1084ZM307.375 27.9401C256.66 27.7542 214.155 70.0957 212.963 122.366C211.48 187.218 199.523 249.125 163.201 304.368C161.44 307.035 158.765 310.805 162.738 312.424C179.608 319.287 196.08 331.843 215.121 326.162C279.568 306.929 335.169 273.985 372.179 215.623C380.243 202.907 389.433 198.965 403.945 198.514C440.572 197.372 463.784 171.198 462.447 135.864C461.877 113.579 431.302 125.923 416.935 122.91C388.373 126.188 413.453 33.6077 307.375 27.9401ZM60.1823 36.6473C37.1288 29.2143 38.7178 22.6839 13.9561 13.6183C2.79352 129.268 20.471 244.107 135.871 299.39C174.483 317.813 202.357 162.849 201.31 136.05C202.886 116.26 184.441 88.0809 185.699 16.0871C187.01 6.99497 151.099 37.802 137.036 36.8198C110.593 30.0107 82.7061 36.4482 60.1823 36.6473Z" fill="#366CB3"/>
<path d="M18.3525 52.0042V27.1169C18.3525 24.8738 20.7228 23.427 22.709 24.4623L46.8615 37.0984" stroke="#F4972E" stroke-width="3" stroke-miterlimit="10"/>
<path d="M153.363 37.3241L176.443 28.1523C178.522 27.3294 180.734 29.0018 180.508 31.245L177.688 58.4019" stroke="#F4972E" stroke-width="3" stroke-miterlimit="10"/>
<path d="M28.4159 362.345C30.1108 374.49 31.8719 390.312 33.739 409.783C35.5928 429.255 36.5329 444.334 36.5329 455.005C36.5329 457.925 35.1161 459.385 32.2824 459.385C29.4487 459.385 28.0319 458.257 28.0319 456.014V439.064C26.8137 438.215 24.6156 437.498 21.4773 436.901C18.3258 436.303 15.5319 435.932 13.0822 435.759C12.0229 437.538 11.2151 441.161 10.6457 446.656C10.0764 452.138 9.1627 455.921 7.89151 457.992C3.70719 457.992 1.40316 457.129 0.992676 455.39C2.93918 452.55 6.88516 434.472 12.8438 401.156C15.1611 387.989 16.5647 380.343 17.0282 378.233C19.3454 367.057 21.8613 361.469 24.5626 361.469C26.1648 361.469 27.4492 361.854 28.4291 362.611V362.345H28.4159ZM27.9127 431.06C27.7803 429.494 27.3566 424.822 26.6415 417.031C24.7347 397.134 23.7946 386.011 23.7946 383.662C23.7946 381.312 23.8211 380.038 23.8608 379.813C23.3576 380.41 22.1394 386.542 20.2194 398.236C18.2993 409.916 17.2135 416.274 16.962 417.283C16.7104 418.292 16.2999 419.699 15.757 421.477C14.6182 425.154 14.0091 427.994 13.9164 429.985C17.5049 430.954 20.4842 431.445 22.8544 431.445C25.1982 431.445 26.8931 431.313 27.9127 431.06Z" fill="#F4972E" stroke="#F4972E" stroke-miterlimit="10"/>
<path d="M55.3362 453.798L55.5216 457.673C55.5216 459.067 55.2303 460.142 54.6609 460.885C54.0915 461.629 53.1779 462 51.9067 462C50.6355 462 49.6026 461.695 48.8082 461.085C48.0004 460.474 47.6297 459.585 47.6694 458.417C47.7091 457.249 48.2123 446.391 49.1524 425.844C50.1058 405.297 50.5825 389.807 50.5825 379.388C50.7149 377.185 51.046 375.711 51.5889 374.968C52.145 374.225 52.913 373.813 53.9326 373.734C54.939 373.654 55.6275 373.694 55.9586 373.866C56.2896 374.039 56.6074 374.318 56.8722 374.729C57.1503 375.127 57.3754 375.499 57.574 375.844C57.7594 376.189 57.9448 376.707 58.1169 377.397C58.2891 378.101 58.4083 378.631 58.501 378.99C58.5804 379.348 58.6863 379.919 58.8187 380.702C58.9512 381.485 59.0703 382.242 59.2028 382.985C59.3352 383.728 59.9575 386.728 61.1095 391.998C62.2483 397.267 63.5062 404.063 64.8834 412.385C66.2605 420.707 67.8495 431.26 69.6636 444.042C72.3251 429.773 74.6291 416.248 76.5624 403.466C78.5089 390.684 79.5285 383.888 79.6344 383.078C79.7404 382.282 79.8198 381.684 79.886 381.299C79.9522 380.914 80.0714 380.344 80.2303 379.587C80.4024 378.831 80.5613 378.233 80.707 377.809C80.8526 377.384 81.0777 376.893 81.3691 376.322C81.6604 375.751 81.9782 375.313 82.3225 375.021C83.1169 374.265 84.0703 373.88 85.1694 373.88C86.2684 373.88 87.3277 374.198 88.3341 374.835C89.3537 375.472 89.8569 376.335 89.8569 377.437C89.8569 397.333 90.0423 411.111 90.3998 418.783C90.7573 426.442 90.9427 431.061 90.9427 432.627L90.8103 453.585C91.1943 454.514 91.3797 455.497 91.3797 456.532C91.3797 457.567 91.0354 458.682 90.3601 459.863C89.6847 461.045 88.7976 461.642 87.6985 461.642C84.9972 461.642 83.6466 458.934 83.6466 453.519L83.832 441.52C83.832 433.091 83.7525 425.565 83.5804 418.916C83.7128 414.973 83.7658 404.687 83.7658 388.055C82.4549 396.192 80.6408 407.089 78.3103 420.761C75.993 434.432 74.7483 441.692 74.6026 442.515C74.457 443.338 74.3378 444.135 74.2584 444.891C74.1789 445.648 74.0862 446.311 74.0068 446.856C73.9273 447.413 73.7684 448.037 73.5301 448.767C73.2917 449.484 73.0269 450.081 72.7356 450.546C72.0205 451.687 71.0009 452.258 69.69 452.258C67.1609 452.258 65.6381 450.4 65.135 446.67C64.4596 441.374 63.0825 432.069 60.9904 418.756C58.8982 405.443 57.3489 396.484 56.3293 391.865C55.6805 421.491 55.3362 442.157 55.3362 453.798Z" fill="#F4972E" stroke="#F4972E" stroke-miterlimit="10"/>
<path d="M120.525 457.992L115.652 458.058L110.011 458.311C107.601 458.311 105.999 457.527 105.191 455.961C105.191 454.687 105.35 453.705 105.668 453.014C105.985 452.311 106.648 451.966 107.667 451.966H111.335L111.587 450.254L110.699 422.632L111.401 393.67C111.401 388.799 111.189 384.193 110.766 379.826C108.952 379.826 107.27 379.826 105.734 379.826C104.198 379.826 103.059 379.587 102.344 379.096C101.629 378.605 101.271 377.689 101.271 376.335C101.271 374.304 103.615 373.309 108.303 373.349H108.753C119.863 373.349 125.411 374.835 125.411 377.795C125.411 378.26 125.159 379.07 124.656 380.211H117.996C118.327 383.383 118.499 387.113 118.499 391.387L117.797 416.221L118.75 443.843V447.719C118.75 448.475 118.605 449.643 118.313 451.209H123.822C127.371 451.209 129.145 452.284 129.145 454.448C129.145 455.417 128.84 456.253 128.231 456.93C127.622 457.607 126.934 457.952 126.166 457.952L120.525 457.992Z" fill="#F4972E" stroke="#F4972E" stroke-miterlimit="10"/>
<path d="M158.54 426.494L156.262 426.561C155.031 426.561 154.064 426.362 153.349 425.95C152.634 425.552 152.276 424.742 152.276 423.534C152.276 422.326 152.66 421.411 153.455 420.774C154.236 420.136 155.203 419.818 156.342 419.818V419.884C164.79 419.884 169.014 421.212 169.014 423.879L167.623 433.343L168.259 447.121C168.259 449.616 168.074 451.753 167.69 453.532C162.658 458.151 158.209 460.46 154.329 460.46C152.263 460.46 150.356 459.903 148.622 458.775C146.887 457.646 145.206 455.735 143.55 453.027C141.895 450.32 140.465 445.17 139.247 437.564C138.015 429.972 137.406 424.689 137.406 421.716C137.406 418.756 137.472 416.3 137.592 414.349C137.724 412.398 137.909 410.195 138.161 407.713C138.413 405.231 138.558 403.625 138.598 402.881C138.638 402.138 138.717 401.076 138.823 399.709C138.929 398.329 139.035 397.028 139.141 395.767C139.247 394.519 139.485 392.767 139.843 390.497C140.2 388.228 140.597 386.449 141.021 385.135C141.445 383.821 142.054 382.334 142.862 380.662C143.656 378.99 144.596 377.689 145.642 376.76C148.225 374.556 151.204 373.455 154.607 373.455C158.01 373.455 159.705 374.556 159.705 376.76C159.705 377.768 159.334 378.605 158.593 379.268C157.851 379.932 157.004 380.25 156.024 380.25L153.68 379.932C151.151 379.932 149.218 382.892 147.92 388.825C146.649 394.586 145.921 399.775 145.709 404.381C145.325 411.456 145.139 416.168 145.139 418.517C145.139 420.866 145.153 422.685 145.166 423.986C145.192 425.273 145.232 426.879 145.298 428.804C145.364 430.728 145.47 432.441 145.616 433.914C145.762 435.401 145.96 437.033 146.225 438.838C146.477 440.644 146.781 442.21 147.139 443.537C147.496 444.864 147.946 446.205 148.463 447.532C148.993 448.86 149.588 449.948 150.264 450.798C151.787 452.709 153.601 453.651 155.706 453.651C159.467 453.651 161.307 446.351 161.215 431.737V426.972C160.645 426.654 159.771 426.494 158.54 426.494Z" fill="#F4972E" stroke="#F4972E" stroke-miterlimit="10"/>
<path d="M210.368 424.451C210.368 449.391 205.283 461.854 195.101 461.854C185.726 461.854 180.469 450.041 179.33 426.415C179.251 424.172 179.198 421.929 179.198 419.686L179.131 411.748V409.213C179.131 390.883 181.819 379.561 187.182 375.234C188.493 374.172 189.95 373.601 191.552 373.521C192.783 373.946 194.28 374.331 196.054 374.689C197.828 375.048 199.139 375.419 199.987 375.804C201.549 376.521 203.231 378.393 205.058 381.419C206.872 384.445 208.21 388.494 209.084 393.551C209.944 398.608 210.381 403.678 210.381 408.762V424.451H210.368ZM186.295 393.843L186.48 401.461L186.414 413.912C186.414 414.974 186.441 416.221 186.48 417.655C186.52 419.088 186.573 420.986 186.639 423.336C186.705 425.685 186.825 428.008 187.023 430.317C187.209 432.627 187.434 435.056 187.685 437.618C187.937 440.179 188.281 442.555 188.705 444.732C189.129 446.909 189.592 448.887 190.095 450.665C191.234 454.514 192.73 456.439 194.597 456.439C197.087 456.439 198.994 454.09 200.305 449.391C202.251 442.409 203.218 433.808 203.218 423.614L203.403 410.208C203.403 400.811 202.993 394.48 202.172 391.215C201.351 387.949 200.583 385.494 199.854 383.848C198.424 380.503 196.239 378.831 193.326 378.831C193.247 378.831 193.154 378.831 193.075 378.831C188.546 378.857 186.295 383.861 186.295 393.843Z" fill="#F4972E" stroke="#F4972E" stroke-miterlimit="10"/>
<path d="M221.385 453.984L228.231 454.939C229.873 454.939 231.316 454.223 232.535 452.776C233.753 451.342 234.666 449.537 235.262 447.374C236.401 443.219 236.971 439.556 236.971 436.357C236.971 433.158 236.441 429.999 235.382 426.866C234.322 423.734 233.038 420.827 231.515 418.133C229.992 415.452 228.456 412.704 226.894 409.903C223.266 403.346 221.451 396.869 221.451 390.471C221.451 386.582 222.1 383.131 223.411 380.118C225.861 374.53 229.118 371.743 233.17 371.743C234.693 371.743 236.136 372.234 237.513 373.203C238.891 374.172 239.566 375.234 239.566 376.375C239.566 378.366 238.507 379.362 236.401 379.362C235.474 379.362 234.561 379.11 233.673 378.605C230.932 378.738 229.065 381.804 228.099 387.817C227.887 389.131 227.781 390.67 227.781 392.423C227.781 394.175 228.165 396.351 228.92 398.926C229.674 401.515 230.641 403.811 231.793 405.815C232.958 407.819 234.203 410.049 235.527 412.478C236.851 414.907 238.123 417.27 239.301 419.566C241.963 424.862 243.3 430.915 243.3 437.724C243.3 443.139 242.227 448.157 240.069 452.776C238.93 455.152 237.315 457.09 235.223 458.589C233.13 460.089 230.721 460.859 227.966 460.912V461.231C226.364 461.018 224.907 460.474 223.597 459.611C222.286 458.749 221.544 457.607 221.385 456.213V453.984Z" fill="#F4972E" stroke="#F4972E" stroke-miterlimit="10"/>
<path d="M301.588 408.137L301.337 414.681V421.796C301.337 430.397 300.953 436.197 300.198 439.197C299.443 442.196 298.662 444.679 297.881 446.63C297.1 448.581 296.159 450.306 295.06 451.833C292.518 455.257 289.313 458.058 285.434 460.222H276.562C274.364 460.222 273.265 454.554 273.265 443.205L273.649 402.244C273.649 394.665 273.503 387.551 273.199 380.901C272.484 380.051 272.126 379.056 272.126 377.888C272.126 376.72 272.616 375.711 273.583 374.835C274.549 373.972 275.728 373.534 277.105 373.534C278.482 373.534 279.647 374.291 280.627 375.817C281.263 376.069 282.203 376.308 283.447 376.521C284.692 376.733 285.619 376.985 286.202 377.277C291.022 379.52 294.782 383.489 297.51 389.183C300.238 394.878 301.588 401.196 301.588 408.137ZM280.375 393.086L281.832 450.492V453.611H284.176C288.691 448.103 291.604 443.073 292.915 438.493C294.133 434.219 294.743 428.246 294.743 420.588C294.743 394.426 290.267 380.755 281.316 379.56C280.693 382.985 280.375 387.498 280.375 393.086Z" fill="#F4972E" stroke="#F4972E" stroke-miterlimit="10"/>
<path d="M325.86 454.554L330.998 454.235C334.295 454.235 335.937 455.297 335.937 457.408C335.937 458.722 335.367 459.677 334.229 460.261C333.09 460.859 331.805 461.151 330.362 461.151H318.127C317.028 461.151 316.088 460.766 315.307 460.009C314.525 459.253 314.102 458.27 314.035 457.089C313.969 455.908 314.062 454.421 314.287 452.643C314.512 450.864 314.631 449.444 314.631 448.382L313.996 431.737L314.883 393.763L314.194 382.773C314.194 376.64 316.008 373.561 319.637 373.561C320.656 373.561 321.596 373.879 322.483 374.517C322.828 374.556 323.635 374.636 324.92 374.742C326.204 374.848 327.33 374.981 328.31 375.154C329.29 375.326 330.336 375.552 331.474 375.857C333.924 376.534 335.156 377.702 335.156 379.348C335.156 381.127 333.884 382.48 331.355 383.41C327.383 382.056 324.112 381.233 321.53 380.928C321.662 382.786 321.715 384.657 321.715 386.516L321.146 405.191C321.146 405.271 321.265 405.947 321.53 407.222L326.151 407.036C330.336 407.036 332.428 408.217 332.428 410.593C332.428 411.867 332.057 412.982 331.316 413.965C330.574 414.933 329.528 415.425 328.177 415.425C326.827 415.425 325.635 415.04 324.629 414.283H321.331C321.583 417.588 321.715 420.721 321.715 423.681L321.146 447.24C321.173 452.125 322.735 454.554 325.86 454.554Z" fill="#F4972E" stroke="#F4972E" stroke-miterlimit="10"/>
<path d="M371.411 420.959C370.815 423.375 370.524 425.605 370.524 427.662C370.524 429.72 370.789 434.1 371.318 440.803C371.848 447.506 372.113 451.846 372.113 453.784C372.113 455.735 371.768 457.208 371.067 458.231C370.378 459.253 369.584 459.757 368.696 459.757C367.439 459.757 366.631 458.894 366.287 457.155C366.366 453.943 366.419 449.988 366.419 445.316C366.419 440.644 366.048 430.357 365.307 414.482C364.565 398.607 364.194 386.754 364.194 378.923C364.194 374.822 365.624 372.764 368.498 372.764C373.013 372.764 376.814 373.946 379.899 376.322C382.984 378.698 384.52 382.082 384.52 386.489C384.52 392.422 384.057 397.028 383.13 400.333C382.203 403.638 380.442 407.766 377.873 412.717C378.336 414.787 379.157 418.942 380.349 425.167C382.838 438.626 385.646 448.342 388.771 454.315C389.658 456.014 390.095 457.328 390.095 458.284C390.095 459.239 389.83 460.036 389.3 460.699C388.771 461.363 388.069 461.682 387.182 461.682C384.348 461.682 381.753 456.956 379.396 447.519C378.376 443.418 377.476 439.263 376.668 435.069C374.39 423.601 372.934 417.137 372.298 415.703C372.298 416.792 371.994 418.557 371.411 420.959ZM371.212 377.596L370.762 379.441C370.762 382.998 370.842 388.135 371.014 394.838C371.186 401.554 371.265 406.425 371.265 409.478C373.291 408.416 374.933 405.655 376.178 401.196C377.423 396.736 378.045 393.311 378.045 390.935C378.045 388.56 377.979 386.821 377.86 385.692C377.74 384.564 377.462 383.33 377.039 381.976C376.244 379.136 374.298 377.676 371.212 377.596Z" fill="#F4972E" stroke="#F4972E" stroke-miterlimit="10"/>
<path d="M430.773 401.474L430.905 403.704C430.27 406.757 429.859 411.987 429.674 419.42C429.488 426.853 429.118 432.839 428.561 437.392C428.005 441.944 427.277 445.94 426.35 449.391C425.423 452.842 423.927 455.709 421.888 457.992C419.835 460.275 417.558 461.416 415.042 461.416C412.526 461.416 410.474 460.965 408.871 460.049C407.269 459.146 405.958 457.832 404.952 456.107C403.945 454.381 403.098 452.55 402.409 450.585C401.734 448.621 401.231 446.338 400.887 443.763C400.291 439.237 400 434.445 400 429.414L400.701 395.116C400.701 387.617 400.172 381.419 399.112 376.507V373.402C401.178 373.402 402.82 374.211 404.025 375.817C405.23 377.423 405.826 379.228 405.826 381.219V444.148C405.826 447.493 406.66 450.559 408.328 453.319C409.997 456.094 412.46 457.474 415.717 457.474C419.398 457.474 421.835 446.763 423.066 425.34V424.769L423.132 423.946C424.231 404.381 424.774 388.56 424.774 376.441L424.708 374.278C424.708 373.269 424.933 372.499 425.41 371.995C425.873 371.49 426.761 371.238 428.072 371.238C429.382 371.238 430.349 371.596 430.985 372.313C431.62 373.03 431.991 373.76 432.097 374.503C432.203 375.247 432.256 376.255 432.256 377.516L431.369 390.604L430.773 401.474Z" fill="#F4972E" stroke="#F4972E" stroke-miterlimit="10"/>
<path d="M474.417 438.427L473.715 441.028C473.715 442.09 474.099 444.665 474.854 448.78C475.609 452.881 475.993 455.576 475.993 456.85V456.983C475.993 458.934 475.344 460.155 474.033 460.66C472.219 460.66 470.802 460.368 469.782 459.77C468.763 459.173 468.26 457.686 468.26 455.297C468.26 452.908 467.624 447.984 466.353 440.537L462.367 440.152H458.064C457.097 439.728 455.376 439.515 452.926 439.515C452.926 439.595 452.873 440.166 452.767 441.201C452.661 442.236 452.582 443.073 452.516 443.71C452.449 444.347 452.343 445.289 452.198 446.537C452.052 447.785 451.893 448.846 451.721 449.709C451.549 450.572 451.337 451.594 451.085 452.762C450.834 453.93 450.543 454.899 450.225 455.682C449.907 456.465 449.563 457.222 449.179 457.939C448.424 459.425 447.484 460.155 446.398 460.155C445.299 460.155 444.319 459.823 443.458 459.173C442.584 458.523 442.161 457.686 442.161 456.664C444.438 447.904 446.398 438.719 448.027 429.109C449.655 419.499 450.622 413.792 450.94 411.987C451.258 410.195 451.999 406.717 453.151 401.567C454.303 396.417 455.005 392.98 455.243 391.241C455.468 389.502 455.693 387.259 455.905 384.511C456.289 378.499 457.071 374.623 458.249 372.897H462.619C465.572 372.897 467.055 373.787 467.055 375.565C467.055 392.289 468.683 408.907 471.928 425.419C472.1 426.388 472.418 427.742 472.881 429.481C473.914 433.237 474.417 436.224 474.417 438.427ZM465.545 435.64C465.294 434.365 465.161 432.321 465.161 429.481C465.161 426.64 464.989 423.203 464.618 419.168C464.261 415.119 463.744 410.434 463.069 405.098C462.394 399.762 461.93 395.913 461.679 393.537C461.175 395.993 460.182 400.107 458.699 405.855C455.693 417.84 454.157 427.065 454.078 433.542C455.561 434.511 459.388 435.215 465.545 435.64Z" fill="#F4972E" stroke="#F4972E" stroke-miterlimit="10"/>
</svg>
