<svg width="500" height="500" viewBox="0 0 500 500" fill="none" xmlns="http://www.w3.org/2000/svg">
<path d="M250 427.56C357.083 427.56 443.89 422.492 443.89 416.24C443.89 409.988 357.083 404.92 250 404.92C142.918 404.92 56.1101 409.988 56.1101 416.24C56.1101 422.492 142.918 427.56 250 427.56Z" fill="#F5F5F5"/>
<path d="M133.45 108.66C123.83 115.54 139.93 129.95 125.58 133.19C111.23 136.43 121.58 161.54 135.33 163.02C149.08 164.5 174.92 168.45 178.25 147.92C181.25 129.18 171.7 129.41 172.88 121.65C174.32 112.18 171.59 106.2 162.88 101.16C151 94.22 130.45 93.2 133.45 108.66Z" fill="#262626"/>
<path d="M179.37 411.69C170.86 411.04 166.47 405.22 166.78 399.05C166.94 395.65 156.06 395.35 156.06 395.35C158.29 405.89 156.2 407.35 155.62 410.12C155.04 412.89 155.36 415.85 157.62 415.91C160.32 415.97 161.55 415.46 164.9 415.59C168.82 415.74 171.46 415.9 178.41 415.91C181.18 415.91 183.15 412 179.37 411.69Z" fill="#FFC100"/>
<path d="M177.82 213.17C177.82 213.17 178.66 262.56 173.25 299.77C173.05 331.26 167.52 400.49 167.52 400.49C163.807 401.368 159.936 401.33 156.24 400.38C156.24 400.38 140.24 349.82 145.33 299.24C137.33 246.24 137.59 213.17 137.59 213.17H177.82Z" fill="#262626"/>
<path opacity="0.2" d="M138.54 237.74C139.54 252.57 141.44 273.56 145.33 299.23C144.95 303.03 144.68 306.84 144.53 310.62C161.49 280.13 163.55 232 138.54 237.74Z" fill="black"/>
<path d="M111.67 410.82C111.37 406.385 111.707 401.93 112.67 397.59C112.67 397.59 103.28 395.59 102.98 398.87C102.45 404.87 99.1101 410.45 91.7101 411.42C87.4801 411.97 89.0601 415.91 92.0801 415.91C99.6401 415.91 97.0801 415.79 101.37 415.64C105.04 415.52 105.78 415.97 108.73 415.91C111.14 415.86 111.69 413.51 111.67 410.82Z" fill="#FFC100"/>
<path d="M163.17 213.17C163.17 213.17 148.79 281.81 139.32 311.17C129.39 341.96 113.44 398.12 113.32 400.43C108.97 401.25 104.88 401.55 101.48 400.43C101.48 400.43 95.94 337.29 108.66 303.86C111.86 234.08 130.66 213.22 130.66 213.22L163.17 213.17Z" fill="#262626"/>
<path d="M165.85 149.62C165.805 149.621 165.76 149.61 165.72 149.589C165.679 149.568 165.645 149.538 165.62 149.5C165.51 149.34 165.38 149.18 165.26 149.02C164.43 147.95 163.41 146.62 164.42 145.08C165.6 143.29 168.04 143.9 169.83 144.35L170.57 144.53C171.91 144.939 173.349 144.879 174.65 144.36C176.27 143.56 177.17 141.88 178.04 140.24C178.558 139.165 179.206 138.157 179.97 137.24C180.18 137 180.4 136.77 180.63 136.54C181.51 135.751 182.194 134.768 182.63 133.67C182.639 133.635 182.655 133.602 182.678 133.574C182.7 133.545 182.728 133.522 182.76 133.505C182.792 133.488 182.827 133.478 182.864 133.475C182.9 133.473 182.936 133.478 182.97 133.49C183.006 133.5 183.039 133.518 183.068 133.541C183.096 133.564 183.12 133.593 183.138 133.625C183.156 133.658 183.167 133.694 183.171 133.73C183.174 133.767 183.171 133.805 183.16 133.84C182.696 135.027 181.956 136.087 181 136.93L180.36 137.61C179.626 138.497 179.005 139.471 178.51 140.51C177.6 142.22 176.66 143.99 174.87 144.87C173.457 145.445 171.891 145.519 170.43 145.08L169.67 144.9C167.96 144.47 165.83 143.9 164.86 145.4C164.07 146.6 164.86 147.62 165.68 148.69C165.8 148.86 165.93 149.02 166.05 149.18C166.094 149.24 166.112 149.314 166.1 149.387C166.089 149.46 166.049 149.526 165.99 149.57C165.949 149.599 165.9 149.617 165.85 149.62Z" fill="white"/>
<path d="M189.45 142.14L187.45 138.56C186.741 137.264 185.707 136.175 184.45 135.4L182.05 133.94C181.28 133.471 180.37 133.287 179.478 133.42C178.586 133.554 177.769 133.996 177.17 134.67L175.31 136.76C174.969 137.14 174.708 137.584 174.541 138.066C174.374 138.549 174.305 139.059 174.337 139.568C174.37 140.078 174.504 140.575 174.731 141.032C174.958 141.489 175.274 141.897 175.66 142.23L177.45 143.79C177.45 143.79 181.91 148.73 187.11 149.7L188.03 148.53C188.749 147.65 189.252 146.613 189.499 145.504C189.745 144.394 189.729 143.242 189.45 142.14Z" fill="#FFC3BD"/>
<path d="M175.94 155.28L176.87 156.46C177.23 156.91 177.61 157.37 178 157.82C178.79 158.72 179.58 159.62 180.42 160.46C182.017 162.122 183.754 163.644 185.61 165.01C187.288 166.262 189.116 167.3 191.05 168.1C191.943 168.445 192.858 168.729 193.79 168.95C194.241 169.057 194.699 169.133 195.16 169.18H195.33H195.42H195.2H194.74L194.23 169.27C193.819 169.353 193.42 169.484 193.04 169.66C192.604 169.844 192.191 170.079 191.81 170.36C191.446 170.623 191.11 170.925 190.81 171.26C190.565 171.537 190.344 171.835 190.15 172.15C190.013 172.389 189.889 172.636 189.78 172.89C189.707 173.07 189.643 173.253 189.59 173.44C189.554 173.568 189.527 173.698 189.51 173.83C189.496 173.953 189.496 174.077 189.51 174.2C189.51 174.37 189.51 174.29 189.57 174.2C189.609 173.814 189.609 173.426 189.57 173.04C189.432 171.875 189.225 170.72 188.95 169.58C188.41 167.08 187.66 164.45 186.89 161.8L181.97 145.68V145.63C181.679 144.665 181.741 143.628 182.146 142.705C182.55 141.782 183.27 141.033 184.176 140.592C185.082 140.152 186.116 140.048 187.092 140.301C188.067 140.553 188.921 141.145 189.5 141.97C192.862 146.808 195.889 151.869 198.56 157.12C199.959 159.83 201.218 162.61 202.33 165.45C202.94 167.025 203.458 168.635 203.88 170.27C204.14 171.282 204.324 172.311 204.43 173.35C204.488 174.066 204.488 174.785 204.43 175.5C204.368 176.667 204.104 177.814 203.65 178.89C203.475 179.307 203.271 179.711 203.04 180.1C202.427 181.107 201.621 181.984 200.67 182.68C200.146 183.075 199.579 183.411 198.98 183.68C198.434 183.92 197.864 184.101 197.28 184.22C197.023 184.277 196.762 184.321 196.5 184.35C196.26 184.35 196.02 184.37 195.78 184.41H195.27H194.73C193.73 184.41 192.79 184.41 191.83 184.31C189.933 184.151 188.055 183.817 186.22 183.31C182.732 182.307 179.41 180.798 176.36 178.83C173.475 176.993 170.793 174.855 168.36 172.45C167.18 171.27 166.04 170.06 164.98 168.78C164.45 168.14 163.93 167.49 163.42 166.78L162.67 165.73L162.28 165.18L161.83 164.5C160.653 162.689 160.216 160.496 160.608 158.372C160.999 156.248 162.19 154.355 163.935 153.082C165.681 151.81 167.847 151.255 169.989 151.532C172.131 151.808 174.086 152.896 175.45 154.57L175.94 155.28Z" fill="#FFC3BD"/>
<path d="M179.74 165.08C179.57 169.08 185.91 178.39 178.08 183.77C179.54 187.04 180.78 209.21 177.82 213.17C173.5 216.35 150.11 215.73 130.72 213.17C129.9 205.17 134.31 188.55 128.91 162.66C128.612 161.242 128.617 159.777 128.923 158.36C129.23 156.944 129.832 155.608 130.69 154.44C131.547 153.271 132.642 152.297 133.901 151.58C135.161 150.864 136.558 150.421 138 150.28C139.63 150.11 141.35 149.98 143.12 149.89C149.295 149.45 155.494 149.45 161.67 149.89C163.67 150.07 165.74 150.33 167.67 150.61C171.122 151.087 174.272 152.835 176.504 155.51C178.736 158.186 179.89 161.599 179.74 165.08Z" fill="#FFC100"/>
<path d="M142.53 129C144.01 135 145.45 144.71 143.1 149.89C143.1 149.89 150.99 150.28 162.25 159.27C167.55 151.48 162.34 149.96 162.34 149.96C157.66 148.86 156.91 143.17 156.92 138.73L142.53 129Z" fill="#FFC3BD"/>
<path opacity="0.2" d="M156.92 138.73L148.74 133.2C148.668 134.453 148.919 135.703 149.47 136.83C151.191 140.056 153.996 142.57 157.39 143.93C157.052 142.218 156.895 140.475 156.92 138.73Z" fill="black"/>
<path d="M138.64 118.06C140.97 127.76 141.75 131.92 147.51 136.06C156.16 142.34 167.33 137.38 167.89 127.18C168.4 118 164.51 103.67 154.4 101.43C144.29 99.1901 136.32 108.35 138.64 118.06Z" fill="#FFC3BD"/>
<path d="M153.19 122.11C153.33 122.91 153.87 123.48 154.39 123.39C154.91 123.3 155.22 122.57 155.08 121.78C154.94 120.99 154.4 120.4 153.88 120.5C153.36 120.6 153.05 121.31 153.19 122.11Z" fill="#262626"/>
<path d="M163 120.51C163.14 121.31 163.68 121.88 164.2 121.79C164.72 121.7 165.03 120.97 164.89 120.18C164.75 119.39 164.21 118.8 163.69 118.9C163.17 119 162.9 119.71 163 120.51Z" fill="#262626"/>
<path d="M163.5 119L165.32 118.11C165.32 118.11 164.61 119.76 163.5 119Z" fill="#262626"/>
<path d="M160.65 121.16C161.687 122.856 162.948 124.403 164.4 125.76C164.042 126.117 163.611 126.391 163.136 126.564C162.661 126.737 162.154 126.804 161.65 126.76L160.65 121.16Z" fill="#ED847E"/>
<path d="M157.58 130.56C158.036 130.558 158.491 130.518 158.94 130.44C159.002 130.428 159.057 130.392 159.093 130.339C159.128 130.287 159.142 130.222 159.13 130.16C159.125 130.13 159.114 130.101 159.098 130.074C159.082 130.048 159.06 130.026 159.035 130.008C159.01 129.99 158.982 129.978 158.952 129.971C158.921 129.965 158.89 129.964 158.86 129.97C157.87 130.168 156.847 130.13 155.874 129.859C154.901 129.588 154.005 129.092 153.26 128.41C153.238 128.388 153.211 128.37 153.182 128.358C153.153 128.346 153.122 128.339 153.09 128.339C153.059 128.339 153.027 128.346 152.998 128.358C152.969 128.37 152.942 128.388 152.92 128.41C152.878 128.455 152.854 128.514 152.854 128.575C152.854 128.636 152.878 128.695 152.92 128.74C154.176 129.932 155.849 130.585 157.58 130.56Z" fill="#262626"/>
<path d="M137.93 127.1C138.302 127.93 138.845 128.672 139.524 129.277C140.203 129.882 141.003 130.336 141.87 130.61C144.08 131.22 145.18 128.79 144.55 126.33C143.98 124.11 142.15 121.12 139.93 121.6C137.71 122.08 136.91 124.92 137.93 127.1Z" fill="#FFC3BD"/>
<path d="M150.4 117.11C150.46 117.091 150.516 117.06 150.565 117.019C150.613 116.977 150.652 116.927 150.68 116.87C150.932 116.327 151.307 115.851 151.776 115.479C152.245 115.108 152.794 114.851 153.38 114.73C153.442 114.723 153.501 114.703 153.556 114.673C153.61 114.643 153.658 114.602 153.696 114.553C153.735 114.505 153.763 114.449 153.78 114.389C153.797 114.329 153.802 114.267 153.795 114.205C153.788 114.143 153.769 114.084 153.738 114.029C153.708 113.975 153.667 113.927 153.619 113.889C153.57 113.85 153.514 113.822 153.454 113.805C153.394 113.788 153.332 113.783 153.27 113.79C152.526 113.923 151.825 114.234 151.226 114.695C150.628 115.156 150.149 115.755 149.83 116.44C149.774 116.553 149.765 116.683 149.804 116.803C149.843 116.923 149.928 117.022 150.04 117.08C150.152 117.135 150.281 117.145 150.4 117.11Z" fill="#262626"/>
<path d="M166.67 114.52C166.792 114.5 166.903 114.436 166.98 114.34C167.056 114.239 167.09 114.112 167.073 113.986C167.056 113.861 166.99 113.747 166.89 113.67C166.297 113.199 165.601 112.876 164.858 112.728C164.115 112.58 163.348 112.612 162.62 112.82C162.555 112.836 162.494 112.866 162.441 112.907C162.388 112.948 162.344 112.999 162.312 113.059C162.28 113.118 162.261 113.183 162.256 113.25C162.251 113.316 162.26 113.384 162.283 113.447C162.305 113.51 162.341 113.568 162.387 113.617C162.433 113.665 162.489 113.704 162.551 113.729C162.613 113.755 162.679 113.768 162.746 113.766C162.813 113.764 162.879 113.749 162.94 113.72C163.518 113.562 164.125 113.544 164.711 113.668C165.297 113.791 165.845 114.052 166.31 114.43C166.361 114.468 166.419 114.496 166.481 114.511C166.543 114.527 166.607 114.53 166.67 114.52Z" fill="#262626"/>
<path d="M153.65 120.58L155.48 119.69C155.48 119.69 154.76 121.36 153.65 120.58Z" fill="#262626"/>
<path d="M166.51 225.12C166.51 225.12 172.08 207.48 158.3 203.12C149.88 200.48 146.9 203.84 146.9 203.84L148.9 220.64C154.54 227.25 164.49 230.5 171.68 231.64C176.91 232.52 166.51 225.12 166.51 225.12Z" fill="#E0E0E0"/>
<path d="M151.37 178.57C150.86 184.92 163.94 187.8 168.18 186.98C168.18 186.98 172.72 192.17 175.91 190.36C177.3 189.58 173.49 187.11 171.76 184.53C170.03 181.95 163.29 180.8 161.86 177.62C159.34 172 152 171.2 151.37 178.57Z" fill="white"/>
<path d="M141.73 179.84C136.14 197.04 132.43 214.96 138.65 221.79C144.87 228.62 152.14 235 159.81 236C165.36 236.71 154.23 227 154.23 227C154.23 227 175.23 218.13 159.28 205.77C163.22 200.08 160.18 185.04 161.39 179.09C162.6 173.14 146.92 163.82 141.73 179.84Z" fill="white"/>
<path d="M156.69 158.63C156.25 157.07 160.69 156.63 163.28 153.77C164.84 156.47 161 162.44 161 162.44C161 162.44 157.48 161.45 156.69 158.63Z" fill="#262626"/>
<path d="M145.86 173.06C145.73 169.98 143 166.73 144.94 161.85C145.841 159.669 147.435 157.845 149.475 156.659C151.515 155.474 153.889 154.993 156.23 155.29C158.466 155.582 160.529 156.648 162.06 158.303C163.591 159.959 164.493 162.098 164.61 164.35C164.95 168.67 158.93 172.78 159.72 176.91C160.51 181.04 145.86 173.06 145.86 173.06Z" fill="white"/>
<path d="M157.57 155.58C156.24 157 160.73 159.38 162.94 159.42C161.673 157.533 159.766 156.169 157.57 155.58Z" fill="#E0E0E0"/>
<path d="M139.14 261.75H139C136.36 261.7 134.1 260 132.78 257.1C132.634 256.766 132.627 256.387 132.76 256.048C132.893 255.708 133.156 255.436 133.49 255.29C133.824 255.144 134.203 255.137 134.542 255.27C134.882 255.403 135.154 255.666 135.3 256C136.18 257.93 137.52 259 139.08 259C140.033 258.934 140.949 258.604 141.726 258.048C142.503 257.492 143.11 256.731 143.48 255.85C145.37 252.07 144.13 246.79 140.16 241.72C132.95 232.5 132.97 225.72 134.26 221.72C135.47 217.92 138.15 215.55 140.12 214.97C140.466 214.867 140.839 214.905 141.157 215.076C141.475 215.248 141.712 215.539 141.815 215.885C141.919 216.231 141.88 216.604 141.709 216.922C141.537 217.24 141.246 217.477 140.9 217.58C139.85 217.9 137.82 219.52 136.9 222.58C135.81 225.99 135.9 231.8 142.35 240.08C146.98 245.99 148.35 252.36 145.96 257.08C145.374 258.418 144.424 259.566 143.219 260.391C142.013 261.217 140.6 261.687 139.14 261.75Z" fill="white"/>
<path d="M139.13 261.75C136.52 261.75 134.13 260.07 132.81 257.1C132.71 256.779 132.732 256.432 132.871 256.126C133.01 255.82 133.257 255.576 133.565 255.44C133.872 255.304 134.219 255.286 134.539 255.389C134.859 255.492 135.13 255.71 135.3 256C136.39 258.41 138.25 259.48 140.25 258.87C140.595 258.764 140.968 258.799 141.287 258.968C141.605 259.137 141.844 259.425 141.95 259.77C142.056 260.115 142.021 260.488 141.852 260.806C141.684 261.125 141.395 261.364 141.05 261.47C140.428 261.659 139.781 261.753 139.13 261.75Z" fill="#E0E0E0"/>
<path opacity="0.2" d="M129.85 167.68C130.789 173.183 131.36 178.742 131.56 184.32C136.02 178.14 141.09 166.91 140.81 161.67L129.85 167.68Z" fill="black"/>
<path d="M157.45 184.59L161.45 179.18L168.85 187.4C168.85 187.4 163.92 191.84 158.76 192.28L158 191C157.424 190.045 157.075 188.97 156.98 187.859C156.884 186.748 157.045 185.629 157.45 184.59Z" fill="#FFC3BD"/>
<path d="M168.89 178.79L171.08 181.97C171.561 182.665 171.748 183.521 171.6 184.353C171.452 185.185 170.981 185.924 170.29 186.41L168.88 187.41L161.48 179.19L164.99 177.68C165.668 177.386 166.427 177.336 167.138 177.538C167.849 177.741 168.468 178.183 168.89 178.79Z" fill="#FFC3BD"/>
<path d="M144.2 163.37L143.56 165.26L142.89 167.26C142.46 168.62 142.02 169.99 141.64 171.36C140.83 174.1 140.16 176.84 139.58 179.54C139.047 182.109 138.693 184.712 138.52 187.33C138.371 189.394 138.543 191.469 139.03 193.48L137.44 191.1C136.971 190.643 136.387 190.321 135.75 190.17C135.42 190.17 135.4 190.17 135.53 190.24C136.191 190.365 136.869 190.365 137.53 190.24C139.612 189.949 141.666 189.484 143.67 188.85C145.86 188.22 148.1 187.45 150.36 186.66L157.15 184.21L157.29 184.16C158.217 183.823 159.232 183.818 160.162 184.147C161.092 184.476 161.878 185.118 162.386 185.963C162.895 186.808 163.093 187.804 162.948 188.78C162.803 189.755 162.323 190.65 161.59 191.31C159.636 193.074 157.579 194.72 155.43 196.24C153.27 197.797 151.023 199.229 148.7 200.53C146.185 201.965 143.527 203.135 140.77 204.02C139.022 204.59 137.206 204.927 135.37 205.02C134.059 205.074 132.748 204.929 131.48 204.59C129.642 204.102 127.958 203.152 126.59 201.83C125.978 201.234 125.482 200.529 125.13 199.75L125 199.45C123.345 195.638 122.464 191.535 122.41 187.38C122.41 185.5 122.41 183.68 122.51 181.9C122.61 180.12 122.86 178.39 123.11 176.68C123.628 173.328 124.342 170.008 125.25 166.74C125.7 165.13 126.17 163.53 126.71 161.95C126.98 161.16 127.25 160.37 127.54 159.58C127.83 158.79 128.13 158.05 128.54 157.11C129.365 155.069 130.953 153.43 132.968 152.543C134.982 151.655 137.263 151.589 139.326 152.357C141.389 153.126 143.07 154.67 144.012 156.659C144.954 158.649 145.083 160.927 144.37 163.01L144.2 163.37Z" fill="#FFC3BD"/>
<path d="M145 176.43C141.42 181.69 150.15 190.91 153.55 193.56C153.55 193.56 152.66 200.39 156.12 201.56C157.62 202.09 156.96 197.56 157.76 194.56C158.56 191.56 155.37 184.87 155.44 181.39C155.53 175.31 149.14 170.32 145 176.43Z" fill="#262626"/>
<path d="M149.47 158.32C149.9 156.76 145.47 156.32 142.88 153.46C141.31 156.16 145.15 162.13 145.15 162.13C145.15 162.13 148.68 161.14 149.47 158.32Z" fill="#262626"/>
<path opacity="0.6" d="M149.14 159.57C148.64 159.57 146.56 160.45 143.4 155.57C142.66 157.79 146 162.2 146 162.2C146 162.2 148.7 162.05 149.14 159.57Z" fill="white"/>
<path d="M157.61 157.92C158.118 157.696 158.67 157.594 159.224 157.622C159.778 157.65 160.318 157.807 160.8 158.08C161.36 158.46 160.41 159.34 159.8 159.31C159.19 159.28 156.75 158.33 157.61 157.92Z" fill="#262626"/>
<path d="M158.38 161.41C157.383 161.357 156.412 161.076 155.54 160.59C155.5 160.569 155.471 160.533 155.457 160.49C155.444 160.446 155.449 160.4 155.47 160.36C155.491 160.32 155.527 160.291 155.571 160.277C155.614 160.264 155.66 160.269 155.7 160.29C157.85 161.38 159.14 161.17 159.64 160.62C159.813 160.395 159.906 160.119 159.906 159.835C159.906 159.551 159.813 159.275 159.64 159.05C159.611 159.017 159.594 158.974 159.594 158.93C159.594 158.886 159.611 158.843 159.64 158.81C159.658 158.797 159.679 158.788 159.7 158.784C159.722 158.78 159.744 158.78 159.766 158.785C159.788 158.789 159.808 158.798 159.826 158.811C159.844 158.824 159.859 158.841 159.87 158.86C160.097 159.144 160.221 159.496 160.221 159.86C160.221 160.224 160.097 160.576 159.87 160.86C159.675 161.052 159.441 161.2 159.184 161.294C158.927 161.389 158.653 161.429 158.38 161.41Z" fill="#262626"/>
<path d="M162.21 161.53C161.365 161.35 160.576 160.97 159.91 160.42C159.874 160.392 159.851 160.351 159.845 160.306C159.84 160.261 159.852 160.216 159.88 160.18C159.908 160.144 159.949 160.121 159.994 160.115C160.039 160.11 160.084 160.122 160.12 160.15C160.85 160.69 162.03 161.36 162.38 161.15C162.52 161.07 162.51 160.8 162.47 160.59C162.466 160.568 162.466 160.546 162.471 160.524C162.476 160.503 162.485 160.482 162.498 160.464C162.511 160.446 162.528 160.431 162.547 160.42C162.567 160.409 162.588 160.402 162.61 160.4C162.632 160.394 162.655 160.393 162.677 160.397C162.7 160.401 162.721 160.41 162.739 160.424C162.757 160.437 162.772 160.455 162.783 160.475C162.793 160.495 162.799 160.517 162.8 160.54C162.88 160.993 162.8 161.293 162.56 161.44C162.454 161.501 162.333 161.532 162.21 161.53Z" fill="#262626"/>
<path d="M154.67 156.23C153.96 155.66 152.22 156.16 152.16 156.97C152.1 157.78 155.94 157.24 154.67 156.23Z" fill="#262626"/>
<path d="M159.7 156.52C160.4 156.23 161.7 157.05 161.55 157.71C161.4 158.37 158.44 157 159.7 156.52Z" fill="#262626"/>
<path d="M157.89 159.24C157.899 159.261 157.902 159.283 157.899 159.305C157.897 159.327 157.889 159.348 157.876 159.367C157.863 159.385 157.845 159.399 157.825 159.408C157.805 159.418 157.782 159.422 157.76 159.42C157.705 159.416 157.651 159.397 157.605 159.366C157.56 159.334 157.523 159.291 157.5 159.24C157.489 159.221 157.483 159.198 157.483 159.176C157.484 159.153 157.491 159.131 157.503 159.112C157.516 159.093 157.534 159.079 157.554 159.069C157.575 159.06 157.598 159.057 157.62 159.06C157.677 159.062 157.733 159.08 157.78 159.112C157.828 159.144 157.866 159.188 157.89 159.24Z" fill="#262626"/>
<path d="M156.57 158.77C156.579 158.791 156.582 158.813 156.579 158.835C156.577 158.857 156.569 158.878 156.556 158.897C156.543 158.915 156.525 158.929 156.505 158.938C156.485 158.948 156.462 158.952 156.44 158.95C156.386 158.946 156.334 158.928 156.288 158.899C156.243 158.869 156.205 158.828 156.18 158.78C156.169 158.761 156.163 158.738 156.163 158.716C156.164 158.693 156.171 158.671 156.183 158.652C156.196 158.633 156.214 158.619 156.234 158.609C156.255 158.6 156.278 158.597 156.3 158.6C156.356 158.602 156.41 158.619 156.458 158.649C156.505 158.679 156.544 158.721 156.57 158.77Z" fill="#262626"/>
<path d="M157.1 159.74C157.112 159.759 157.117 159.782 157.117 159.804C157.116 159.827 157.109 159.849 157.097 159.868C157.084 159.887 157.067 159.901 157.046 159.911C157.025 159.92 157.003 159.923 156.98 159.92C156.924 159.917 156.87 159.899 156.824 159.867C156.779 159.835 156.742 159.791 156.72 159.74C156.709 159.721 156.703 159.698 156.703 159.676C156.704 159.653 156.711 159.631 156.724 159.612C156.736 159.593 156.754 159.579 156.774 159.569C156.795 159.56 156.818 159.557 156.84 159.56C156.896 159.563 156.95 159.581 156.996 159.613C157.042 159.645 157.078 159.689 157.1 159.74Z" fill="#262626"/>
<path d="M162.2 159.2C162.21 159.22 162.214 159.242 162.211 159.264C162.209 159.286 162.201 159.307 162.187 159.325C162.174 159.343 162.156 159.356 162.135 159.364C162.114 159.372 162.092 159.374 162.07 159.37C162.016 159.366 161.964 159.348 161.918 159.319C161.873 159.289 161.835 159.248 161.81 159.2C161.799 159.181 161.793 159.158 161.793 159.136C161.794 159.113 161.801 159.091 161.813 159.072C161.826 159.053 161.844 159.039 161.864 159.029C161.885 159.02 161.908 159.017 161.93 159.02C161.987 159.022 162.043 159.04 162.091 159.072C162.138 159.104 162.176 159.148 162.2 159.2Z" fill="#262626"/>
<path d="M161.41 159.7C161.41 159.79 161.41 159.87 161.29 159.87C161.235 159.868 161.182 159.851 161.136 159.821C161.091 159.791 161.054 159.749 161.03 159.7C161.019 159.681 161.013 159.658 161.013 159.636C161.014 159.613 161.021 159.591 161.033 159.572C161.046 159.553 161.064 159.539 161.084 159.529C161.105 159.52 161.128 159.517 161.15 159.52C161.206 159.524 161.259 159.543 161.305 159.574C161.35 159.606 161.387 159.649 161.41 159.7Z" fill="#262626"/>
<path d="M165.39 152.86C166.876 152.86 168.08 151.656 168.08 150.17C168.08 148.684 166.876 147.48 165.39 147.48C163.904 147.48 162.7 148.684 162.7 150.17C162.7 151.656 163.904 152.86 165.39 152.86Z" fill="#262626"/>
<path d="M165.39 153.41C164.749 153.41 164.123 153.22 163.59 152.864C163.057 152.508 162.642 152.002 162.397 151.41C162.151 150.818 162.087 150.166 162.212 149.538C162.337 148.909 162.646 148.332 163.099 147.879C163.552 147.426 164.129 147.117 164.758 146.992C165.386 146.867 166.038 146.931 166.63 147.177C167.222 147.422 167.728 147.837 168.084 148.37C168.44 148.903 168.63 149.529 168.63 150.17C168.627 151.029 168.285 151.851 167.678 152.458C167.071 153.065 166.249 153.407 165.39 153.41ZM165.39 148.04C164.969 148.04 164.557 148.165 164.207 148.399C163.856 148.633 163.583 148.966 163.422 149.355C163.261 149.744 163.219 150.172 163.301 150.586C163.383 150.999 163.586 151.378 163.884 151.676C164.182 151.974 164.561 152.177 164.974 152.259C165.388 152.341 165.816 152.299 166.205 152.138C166.594 151.977 166.927 151.704 167.161 151.353C167.395 151.003 167.52 150.591 167.52 150.17C167.524 149.887 167.472 149.607 167.367 149.344C167.262 149.082 167.106 148.843 166.907 148.641C166.709 148.439 166.473 148.279 166.213 148.169C165.952 148.059 165.673 148.001 165.39 148V148.04Z" fill="white"/>
<path d="M143.45 125C148.71 119.16 145.45 113.55 145.45 113.55C145.45 113.55 163.29 112.55 165.35 109.14C163.28 102.14 155.88 96.55 143.42 101.42C130.96 106.29 136.57 124.56 136.57 124.56L143.45 125Z" fill="#262626"/>
<path d="M332.78 409.42L329.28 401.12C329.16 400.965 329.101 400.772 329.114 400.577C329.127 400.381 329.211 400.198 329.35 400.06L335.47 394.26C336.013 393.881 336.627 393.614 337.274 393.475C337.922 393.335 338.591 393.325 339.242 393.446C339.893 393.567 340.514 393.816 341.068 394.179C341.622 394.542 342.099 395.011 342.47 395.56C344.19 398.1 345.07 400.77 347.92 403.13C352.45 406.9 350.92 405.39 357.58 407.19C361.58 408.27 361.24 412.56 359.41 412.47C351.09 412.04 343.57 411.82 335.22 410.47C334.329 410.34 333.487 409.978 332.78 409.42Z" fill="#262626"/>
<path d="M315.22 391.85C325.42 388.63 369.09 387.09 363.7 354.85L324.34 352.15C324.34 352.15 269.84 372.15 263.81 397.07C256.08 429.01 332.94 412.23 332.94 412.23C336.81 411.33 339.63 406.3 339.1 400.53C339.1 400.51 335.47 391.66 315.22 391.85Z" fill="#FFC100"/>
<path opacity="0.2" d="M315.22 391.85C325.42 388.63 369.09 387.09 363.7 354.85L324.34 352.15C324.34 352.15 269.84 372.15 263.81 397.07C256.08 429.01 332.94 412.23 332.94 412.23C336.81 411.33 339.63 406.3 339.1 400.53C339.1 400.51 335.47 391.66 315.22 391.85Z" fill="black"/>
<path d="M375.36 410.53L371.54 402.37C371.409 402.225 371.336 402.036 371.336 401.84C371.336 401.644 371.409 401.455 371.54 401.31L377.43 395.31C377.957 394.907 378.559 394.612 379.201 394.444C379.843 394.276 380.513 394.237 381.17 394.33C381.827 394.423 382.459 394.646 383.029 394.986C383.599 395.326 384.096 395.776 384.49 396.31C386.31 398.79 387.3 401.42 390.23 403.67C394.91 407.27 393.3 405.82 400.04 407.35C404.12 408.28 403.9 412.59 402.04 412.56C393.71 412.45 386.18 412.56 377.79 411.45C376.914 411.357 376.077 411.041 375.36 410.53Z" fill="#262626"/>
<path d="M360.37 393.57C370.43 389.97 393.64 383.33 380.85 350.34L338.92 354.66C338.92 354.66 302.12 375.32 297.04 400.47C290.54 432.69 375.62 413.32 375.62 413.32C379.45 412.27 382.08 407.14 381.33 401.39C381.33 401.39 380.59 392.61 360.37 393.57Z" fill="#FFC100"/>
<path d="M327.38 289.09C325.844 292.466 323.917 295.651 321.64 298.58C319.544 301.295 317.265 303.864 314.82 306.27C312.5 308.61 310.15 310.75 307.91 312.8C305.67 314.85 303.55 316.8 301.73 318.69L301.07 319.38C300.326 320.157 299.402 320.737 298.38 321.07C294.62 322.255 290.711 322.905 286.77 323C283.228 323.116 279.683 322.982 276.16 322.6C272.72 322.22 269.35 321.68 266.03 320.98C262.694 320.285 259.399 319.407 256.16 318.35C255.153 318.008 254.299 317.321 253.75 316.411C253.2 315.5 252.99 314.425 253.156 313.374C253.322 312.324 253.854 311.366 254.658 310.67C255.462 309.974 256.487 309.584 257.55 309.57H257.75C260.81 309.57 264.04 309.57 267.16 309.49C270.28 309.41 273.4 309.3 276.44 309.05C279.394 308.855 282.334 308.501 285.25 307.99C287.777 307.585 290.246 306.873 292.6 305.87L289.26 308.25C291.41 305.43 293.61 302.96 295.75 300.64C297.89 298.32 299.95 296.13 301.88 293.99C303.81 291.85 305.58 289.74 307.13 287.64C308.623 285.66 309.96 283.567 311.13 281.38L311.21 281.24C312.251 279.092 314.103 277.445 316.358 276.662C318.613 275.879 321.087 276.024 323.235 277.065C325.383 278.106 327.03 279.958 327.813 282.213C328.596 284.468 328.451 286.942 327.41 289.09H327.38Z" fill="#FFB573"/>
<path d="M329.25 279.59C326.92 272.29 319.61 262.41 302.47 289.45C306.47 299.37 322.21 309.08 322.21 309.08C322.21 309.08 334.79 296.94 329.25 279.59Z" fill="#262626"/>
<path d="M262.2 312.57L255.7 304.57L248.64 314.75C248.64 314.75 255.41 321.3 259.47 318.27L262.2 312.57Z" fill="#FFB573"/>
<path d="M245 303.34L243.13 307.34C242.772 308.108 242.696 308.978 242.918 309.796C243.139 310.614 243.643 311.328 244.34 311.81L248.6 314.74L255.66 304.56L249.83 301.67C249.404 301.458 248.94 301.333 248.465 301.302C247.99 301.272 247.514 301.336 247.065 301.491C246.615 301.647 246.201 301.89 245.846 302.208C245.492 302.525 245.204 302.91 245 303.34Z" fill="#FFB573"/>
<path d="M321.44 270.93C335.78 267.45 341.95 267.04 352.44 266.75C355.388 266.655 358.325 267.16 361.072 268.234C363.819 269.309 366.319 270.931 368.419 273.002C370.52 275.073 372.178 277.549 373.292 280.28C374.406 283.012 374.953 285.941 374.9 288.89C374.58 322.81 380.3 342.51 380.9 350.34C358.5 365 326 364.84 320 358.83C307.45 333.18 308.66 301.88 308.65 288.74C308.65 281.63 314 272.73 321.44 270.93Z" fill="#262626"/>
<path d="M344.78 247.41C344.55 258.88 347.45 262.09 349.78 268.98C348.78 273.46 337.43 278.92 328.18 281.33C322.35 278.33 322.09 273.33 323.77 272.1C329.65 268.49 331.43 267.87 328.77 261.63L344.78 247.41Z" fill="#FFB573"/>
<path opacity="0.2" d="M338.08 255L334.34 256.7L328.76 261.65C329.188 262.599 329.522 263.587 329.76 264.6C332.85 263.94 336.15 261.99 337.1 259.44C337.698 258.033 338.031 256.528 338.08 255Z" fill="black"/>
<path d="M315.94 222.78C307.33 226.17 308.66 236.73 316.27 244.78C322.87 234.59 315.94 222.78 315.94 222.78Z" fill="#262626"/>
<path d="M345.57 232.69C345.89 244.07 346.65 250.69 341.44 256.99C333.61 266.43 319.13 262.38 315.44 251.29C312.09 241.29 312.13 224.38 322.83 218.97C325.2 217.78 327.833 217.21 330.483 217.313C333.133 217.416 335.713 218.189 337.984 219.559C340.254 220.929 342.141 222.851 343.467 225.148C344.794 227.444 345.517 230.039 345.57 232.69Z" fill="#FFB573"/>
<path d="M345.17 245.62C339.06 246.2 336.81 236.16 338.08 232.55C339.35 228.94 340.46 225.48 335.16 227.08C329.86 228.68 319.69 234.34 314.3 231C308.63 227.48 305.01 217.24 312.3 213C319.59 208.76 324.15 213.36 324.15 213.36C324.15 213.36 331.15 204.46 343.99 208.19C351.78 210.46 348.77 216.03 348.77 216.03C348.77 216.03 358.7 218.76 355.26 229.45C352.31 238.56 347.84 238.69 345.17 245.62Z" fill="#262626"/>
<path d="M351.09 243.06C350.786 244.442 350.212 245.75 349.4 246.908C348.589 248.067 347.555 249.053 346.36 249.81C343.13 251.81 340.43 249.19 340.42 245.6C340.42 242.38 342.06 237.44 345.73 236.89C349.4 236.34 351.81 239.64 351.09 243.06Z" fill="#FFB573"/>
<path d="M329.59 241.16C329.74 242.07 329.38 242.89 328.78 242.98C328.18 243.07 327.57 242.41 327.42 241.5C327.27 240.59 327.64 239.77 328.23 239.67C328.82 239.57 329.44 240.25 329.59 241.16Z" fill="#262626"/>
<path d="M317.65 242.57C317.8 243.49 317.44 244.3 316.84 244.4C316.24 244.5 315.63 243.83 315.48 242.91C315.33 241.99 315.69 241.18 316.29 241.09C316.89 241 317.5 241.66 317.65 242.57Z" fill="#262626"/>
<path d="M321.43 241.07C321.43 241.07 320.22 246.67 318.35 249.57C320.22 250.82 322.86 249.71 322.86 249.71L321.43 241.07Z" fill="#ED893E"/>
<path d="M327.24 252.05C328.241 251.775 329.173 251.295 329.979 250.641C330.784 249.987 331.445 249.173 331.92 248.25C331.949 248.184 331.951 248.109 331.925 248.041C331.898 247.974 331.846 247.919 331.78 247.89C331.714 247.861 331.639 247.859 331.571 247.885C331.504 247.912 331.449 247.964 331.42 248.03C330.872 249.041 330.092 249.907 329.145 250.559C328.198 251.211 327.11 251.629 325.97 251.78C325.935 251.785 325.901 251.797 325.87 251.815C325.84 251.834 325.813 251.858 325.793 251.887C325.772 251.916 325.758 251.949 325.75 251.984C325.743 252.019 325.743 252.055 325.75 252.09C325.755 252.126 325.767 252.16 325.785 252.191C325.804 252.222 325.828 252.249 325.857 252.27C325.886 252.292 325.918 252.307 325.953 252.316C325.988 252.324 326.025 252.326 326.06 252.32C326.459 252.255 326.853 252.164 327.24 252.05Z" fill="#262626"/>
<path d="M331.94 236.06C332.03 236.033 332.113 235.985 332.18 235.92C332.231 235.87 332.272 235.81 332.299 235.744C332.327 235.678 332.341 235.607 332.341 235.535C332.341 235.463 332.327 235.392 332.299 235.326C332.272 235.26 332.231 235.2 332.18 235.15C331.569 234.533 330.818 234.072 329.992 233.806C329.165 233.54 328.286 233.476 327.43 233.62C327.36 233.635 327.295 233.664 327.237 233.706C327.178 233.747 327.129 233.799 327.092 233.86C327.055 233.921 327.03 233.988 327.019 234.059C327.009 234.129 327.012 234.201 327.03 234.27C327.063 234.41 327.15 234.531 327.272 234.607C327.393 234.684 327.54 234.71 327.68 234.68C328.359 234.577 329.054 234.636 329.706 234.853C330.358 235.071 330.949 235.44 331.43 235.93C331.497 235.993 331.579 236.037 331.668 236.06C331.758 236.083 331.851 236.083 331.94 236.06Z" fill="#262626"/>
<path d="M312.89 237.9C312.979 237.891 313.064 237.86 313.137 237.809C313.211 237.758 313.27 237.69 313.31 237.61C313.611 236.999 314.052 236.469 314.598 236.062C315.144 235.655 315.779 235.384 316.45 235.27C316.521 235.264 316.59 235.243 316.653 235.21C316.716 235.177 316.772 235.132 316.818 235.077C316.864 235.022 316.898 234.959 316.919 234.891C316.94 234.823 316.947 234.751 316.94 234.68C316.925 234.536 316.853 234.403 316.741 234.311C316.629 234.22 316.484 234.176 316.34 234.19C315.488 234.317 314.68 234.648 313.984 235.155C313.287 235.662 312.723 236.329 312.34 237.1C312.273 237.229 312.26 237.379 312.303 237.517C312.346 237.656 312.442 237.772 312.57 237.84C312.668 237.891 312.78 237.912 312.89 237.9Z" fill="#262626"/>
<path d="M370.71 280.34C371.215 282.918 371.433 285.544 371.36 288.17C371.293 290.516 371.069 292.854 370.69 295.17C369.966 299.538 368.862 303.834 367.39 308.01C365.979 312.104 364.275 316.091 362.29 319.94C361.29 321.88 360.23 323.81 359 325.72C357.715 327.754 356.285 329.692 354.72 331.52L354.42 331.86C354.197 332.113 353.953 332.348 353.69 332.56C351.304 334.423 348.566 335.784 345.64 336.56C343.273 337.187 340.853 337.589 338.41 337.76C334.053 338.035 329.679 337.888 325.35 337.32C317.167 336.266 309.121 334.334 301.35 331.56C300.325 331.192 299.469 330.463 298.941 329.511C298.413 328.558 298.25 327.446 298.481 326.381C298.712 325.317 299.322 324.373 300.198 323.725C301.073 323.077 302.155 322.77 303.24 322.86H303.4C307.12 323.16 311.02 323.46 314.8 323.62C318.58 323.78 322.37 323.88 326.05 323.77C329.568 323.721 333.076 323.387 336.54 322.77C338.006 322.507 339.443 322.102 340.83 321.56C341.702 321.254 342.5 320.766 343.17 320.13L342.17 321.13C343.045 319.847 343.84 318.511 344.55 317.13C345.31 315.63 346.09 314.06 346.78 312.44C348.183 309.179 349.399 305.84 350.42 302.44C351.436 299.127 352.211 295.745 352.74 292.32C353.242 289.454 353.339 286.533 353.03 283.64V283.34C352.827 282.175 352.854 280.982 353.112 279.828C353.37 278.674 353.852 277.582 354.532 276.614C355.212 275.646 356.075 274.822 357.074 274.188C358.072 273.555 359.185 273.124 360.35 272.92C361.515 272.716 362.708 272.744 363.862 273.002C365.017 273.26 366.108 273.742 367.076 274.422C368.044 275.102 368.868 275.965 369.502 276.964C370.136 277.962 370.566 279.075 370.77 280.24L370.71 280.34Z" fill="#FFB573"/>
<path d="M228 414.43C209.32 415.65 193.29 402.56 195.5 379.85C205.72 399.73 221.49 412.26 228 414.43Z" fill="#262626"/>
<path opacity="0.1" d="M228 414.43C209.6 410.98 197.31 394.32 205.08 372.87C210.06 394.66 222.23 410.71 228 414.43Z" fill="#262626"/>
<path opacity="0.1" d="M228 414.43C210.32 420.61 191.37 412.29 187.42 389.83C202.59 406.25 221.15 414.09 228 414.43Z" fill="#262626"/>
<path d="M281.06 330.71C281.06 330.71 290.26 377.51 282.32 411.71C287.57 411.71 288.32 417.23 285.18 420.35H221.07C219.918 420.35 218.779 420.116 217.72 419.663C216.661 419.21 215.705 418.547 214.91 417.715C214.114 416.882 213.496 415.896 213.092 414.818C212.688 413.74 212.507 412.59 212.56 411.44C213.14 398.37 218.49 380.21 233.79 373.13C237.66 361.26 246.62 337.19 242.66 323.31C238.7 309.43 256.9 296.28 271 306C280.2 302.74 296.59 290.31 301.29 304.38C305.99 318.45 281.06 330.71 281.06 330.71Z" fill="#262626"/>
<path d="M288.88 326C295.75 323.58 307.03 322.56 300.34 312.17C288.73 313.08 288.88 326 288.88 326Z" fill="#262626"/>
<path opacity="0.2" d="M257.17 416.45H257.04C256.926 416.415 256.831 416.337 256.774 416.232C256.718 416.127 256.706 416.004 256.74 415.89C256.896 415.223 256.886 414.528 256.712 413.866C256.538 413.204 256.204 412.594 255.74 412.09C253.74 409.58 249.6 408.03 245.74 408.33C245.665 408.336 245.59 408.322 245.522 408.291C245.453 408.259 245.394 408.211 245.35 408.15C245.306 408.088 245.278 408.017 245.267 407.942C245.257 407.868 245.265 407.791 245.29 407.72C251.9 389.83 240.93 378.81 240.82 378.72C240.744 378.635 240.703 378.524 240.706 378.409C240.709 378.295 240.755 378.186 240.835 378.105C240.916 378.024 241.024 377.976 241.138 377.971C241.252 377.966 241.364 378.005 241.45 378.08C241.57 378.19 252.69 389.33 246.36 407.41C250.36 407.31 254.36 408.92 256.46 411.54C257.026 412.151 257.43 412.893 257.636 413.7C257.842 414.507 257.844 415.353 257.64 416.16C257.607 416.255 257.542 416.335 257.456 416.388C257.371 416.441 257.27 416.463 257.17 416.45Z" fill="white"/>
<path d="M294.14 298.43C289.61 297.84 285.97 301.26 289.97 303.1C293.97 304.94 290.59 301.16 292.61 302.49C294.63 303.82 296.9 304.35 297.34 303.1C297.78 301.85 296.92 301.52 296.45 300.76C295.98 300 298.69 301.39 298.13 300.5C297.106 299.334 295.682 298.596 294.14 298.43Z" fill="white"/>
<path d="M295.49 310.77C300.17 314.27 298.49 319.04 303.03 317.77C305.22 317.14 305.68 310.87 301.76 307.77C300.4 308.67 298.71 306.45 298.71 306.45C298.71 306.45 297.9 309.77 295.49 310.77Z" fill="#ED847E"/>
<path d="M290 312.62C289.49 312.62 289.16 312.62 289.11 312.62C289.051 312.614 288.993 312.596 288.941 312.567C288.889 312.539 288.843 312.5 288.806 312.454C288.768 312.407 288.741 312.354 288.724 312.296C288.708 312.239 288.703 312.179 288.71 312.12C288.725 312.003 288.784 311.897 288.875 311.822C288.967 311.748 289.083 311.711 289.2 311.72C289.26 311.72 294.95 312.27 297.58 308.19C297.776 307.913 297.911 307.598 297.978 307.266C298.046 306.934 298.043 306.591 297.97 306.26C297.526 305.096 296.702 304.116 295.63 303.48C295.529 303.42 295.455 303.322 295.425 303.208C295.395 303.094 295.412 302.972 295.47 302.87C295.5 302.819 295.54 302.774 295.587 302.738C295.635 302.702 295.689 302.675 295.747 302.66C295.804 302.646 295.864 302.642 295.923 302.651C295.982 302.659 296.039 302.679 296.09 302.71C297.373 303.463 298.347 304.647 298.84 306.05C298.943 306.499 298.952 306.965 298.866 307.417C298.78 307.87 298.601 308.3 298.34 308.68C296.05 312.2 291.85 312.62 290 312.62Z" fill="white"/>
<path d="M301 308.44C299.5 308.44 298.11 306.44 298 306.21C297.958 306.162 297.927 306.106 297.908 306.044C297.89 305.983 297.884 305.919 297.893 305.856C297.901 305.793 297.922 305.732 297.956 305.678C297.989 305.623 298.034 305.577 298.087 305.541C298.14 305.505 298.2 305.481 298.263 305.47C298.325 305.46 298.39 305.462 298.452 305.478C298.513 305.494 298.571 305.523 298.621 305.563C298.671 305.603 298.711 305.653 298.74 305.71C299.07 306.18 300.18 307.53 301.03 307.53C301.14 307.53 301.5 307.53 301.87 306.86C301.93 306.757 302.028 306.681 302.143 306.65C302.259 306.619 302.382 306.635 302.485 306.695C302.589 306.755 302.664 306.853 302.695 306.968C302.726 307.084 302.71 307.207 302.65 307.31C302.511 307.623 302.29 307.893 302.01 308.09C301.73 308.287 301.402 308.405 301.06 308.43L301 308.44Z" fill="white"/>
<path d="M264.43 306.18C260.58 302.76 253.62 306.56 254.43 311.8C255.24 317.04 271.27 312.25 264.43 306.18Z" fill="white"/>
<path d="M263.21 306.79C262.44 305.62 260.55 306.64 260.49 308.31C260.43 309.98 264.58 308.86 263.21 306.79Z" fill="#262626"/>
<path d="M266.94 304.94C266.63 306.3 268.67 306.94 269.94 305.87C271.21 304.8 267.5 302.52 266.94 304.94Z" fill="#262626"/>
<path d="M248.77 311.6C247.66 302.17 231.56 321.37 232.66 333.48C233.76 345.59 244.37 344.3 247.37 343.39C250.37 342.48 249.78 320 248.77 311.6Z" fill="#262626"/>
<path opacity="0.8" d="M248.77 311.6C247.66 302.17 231.56 321.37 232.66 333.48C233.76 345.59 244.37 344.3 247.37 343.39C250.37 342.48 249.78 320 248.77 311.6Z" fill="white"/>
<path d="M278.13 420.37H262.39C260.91 416.66 253.05 396.43 254 387.64C253.073 388.464 252.348 389.491 251.88 390.64C251.642 389.517 251.701 388.352 252.052 387.259C252.403 386.167 253.033 385.184 253.88 384.41C253.12 383.94 251.53 384.76 251.53 384.76C251.687 384.047 251.987 383.372 252.412 382.778C252.836 382.183 253.376 381.68 254 381.3C253.589 380.868 253.251 380.371 253 379.83C248.32 370.97 251.33 360.09 259.49 354.26C264.44 350.71 270.2 350.85 271.49 361.55C272.78 372.25 267.1 401.98 272.77 415.32C276.46 414.78 277.77 418.83 278.13 420.37Z" fill="white"/>
<path opacity="0.2" d="M266.32 333.9C261.97 333.9 257.64 332.6 255.74 330.19C255.667 330.096 255.635 329.977 255.65 329.858C255.665 329.74 255.726 329.633 255.82 329.56C255.914 329.489 256.032 329.456 256.149 329.469C256.266 329.482 256.374 329.54 256.45 329.63C259.45 333.47 269.68 334.19 274.65 330.91C274.699 330.877 274.755 330.854 274.813 330.843C274.871 330.831 274.93 330.831 274.988 330.843C275.046 330.855 275.102 330.878 275.151 330.911C275.2 330.943 275.242 330.986 275.275 331.035C275.308 331.084 275.331 331.139 275.342 331.198C275.354 331.256 275.354 331.315 275.342 331.373C275.33 331.431 275.307 331.487 275.275 331.536C275.242 331.585 275.199 331.627 275.15 331.66C272.475 333.221 269.415 333.997 266.32 333.9Z" fill="white"/>
<path d="M305.91 323.12L296 320.2V332.58C296 332.58 305.29 334.14 306.92 329.34L305.91 323.12Z" fill="#FFB573"/>
<path d="M286.54 325.25L287.26 329.59C287.396 330.428 287.825 331.191 288.472 331.74C289.119 332.29 289.941 332.591 290.79 332.59H296V320.21L289.56 321.13C289.09 321.199 288.638 321.362 288.231 321.607C287.824 321.852 287.47 322.176 287.189 322.559C286.908 322.942 286.706 323.378 286.595 323.839C286.483 324.301 286.465 324.781 286.54 325.25Z" fill="#FFB573"/>
<path d="M367.12 272.93C360.94 268.41 349.76 272.05 347.77 297.84C357.11 303.04 373.26 297.84 373.26 297.84C373.26 297.84 378.1 280.93 367.12 272.93Z" fill="#262626"/>
</svg>
