<svg width="440" height="421" viewBox="0 0 440 421" fill="none" xmlns="http://www.w3.org/2000/svg">
<path d="M220 360.005C314.233 360.005 390.623 355.738 390.623 350.474C390.623 345.21 314.233 340.943 220 340.943C125.767 340.943 49.3768 345.21 49.3768 350.474C49.3768 355.738 125.767 360.005 220 360.005Z" fill="#F5F5F5"/>
<path d="M250.466 100.021C245.186 93.1841 246.409 87.2143 250.466 82.9201C255.526 77.5313 263.789 77.5734 269.298 80.3268C277.922 84.6294 279.778 103.482 265.373 106.142C260.261 104.435 255.28 102.39 250.466 100.021Z" fill="#263238"/>
<path d="M267.617 81.514C272.897 78.5417 271.427 72.774 276.197 69.726C282.832 65.516 297.132 67.3432 292.662 77.8682C288.191 88.3932 304.102 88.9994 299.482 99.457C294.862 109.915 281.442 116.297 277.992 101.141C275.414 89.7824 286.37 75.1485 277.526 76.723C272.008 77.6997 270.169 83.1307 270.169 83.1307L267.617 81.514Z" fill="#263238"/>
<path d="M254.496 126.089C253.774 128.001 252.991 129.735 252.155 131.529C251.319 133.322 250.395 135.048 249.427 136.774C247.478 140.397 245.031 143.753 242.15 146.752C241.326 147.592 240.421 148.356 239.448 149.034C238.485 149.687 237.46 150.251 236.386 150.718C234.406 151.565 232.342 152.22 230.226 152.671C226.215 153.558 222.109 153.984 217.994 153.943C217.532 153.936 217.088 153.768 216.745 153.472C216.403 153.176 216.183 152.771 216.129 152.333C216.074 151.894 216.187 151.451 216.448 151.086C216.708 150.721 217.098 150.459 217.545 150.347H217.633C221.314 149.524 224.938 148.481 228.483 147.224C230.15 146.63 231.763 145.906 233.306 145.06C233.993 144.683 234.646 144.252 235.259 143.771C235.852 143.297 236.4 142.773 236.896 142.205C238.029 140.924 239.051 139.555 239.95 138.113C240.9 136.623 241.815 135.082 242.66 133.474C244.332 130.291 245.916 126.889 247.28 123.622V123.572C247.642 122.664 248.365 121.931 249.292 121.534C250.219 121.137 251.272 121.108 252.221 121.454C253.17 121.8 253.936 122.493 254.351 123.38C254.766 124.266 254.796 125.274 254.434 126.182L254.496 126.089Z" fill="#B55B52"/>
<path d="M253.352 119.859C246.083 120.65 242.079 131.083 242.079 131.083L249.524 141.119C249.524 141.119 258.324 131.579 259.09 127.319C259.855 122.932 258.72 119.261 253.352 119.859Z" fill="#263238"/>
<path opacity="0.2" d="M249.374 126.241C251.812 124.776 254.47 125.584 256.731 128.304C257.199 129.084 257.512 129.941 257.655 130.83C255.455 134.644 249.515 141.111 249.515 141.111L246.11 136.522C245.854 133.811 247.799 127.142 249.374 126.241Z" fill="black"/>
<path d="M219.322 150.718L213.84 147.889L213.69 154.726C213.69 154.726 217.351 155.484 219.771 153.614L219.322 150.718Z" fill="#B55B52"/>
<path d="M208.34 148.125L209.299 153.707L213.726 154.726L213.875 147.889L208.34 148.125Z" fill="#B55B52"/>
<path d="M235.972 135.823L231.167 132.051L198.431 179.11L203.28 182.882C208.806 187.21 220.607 180.188 229.68 167.187C238.753 154.187 241.498 140.151 235.972 135.823Z" fill="#FF9925"/>
<path opacity="0.1" d="M235.972 135.823L231.167 132.051L198.431 179.11L203.28 182.882C208.806 187.21 220.607 180.188 229.68 167.187C238.753 154.187 241.498 140.151 235.972 135.823Z" fill="black"/>
<path d="M225.661 162.155C234.395 148.947 236.613 135.297 230.617 131.667C224.62 128.038 212.679 135.802 203.946 149.01C195.213 162.218 192.994 175.868 198.99 179.498C204.987 183.128 216.928 175.363 225.661 162.155Z" fill="#FF9925"/>
<path d="M208.727 163.297L213.127 156.949C212.68 155.647 212.659 154.246 213.066 152.932C213.569 151.276 214.351 149.709 215.38 148.293C216.308 146.862 217.522 145.62 218.953 144.639C220.176 143.864 221.223 143.679 222.077 144.083L223.15 142.551L224.083 143.283L223.027 144.824C223.314 145.253 223.505 145.733 223.59 146.236C223.675 146.739 223.651 147.252 223.52 147.746C223.177 149.232 222.583 150.654 221.76 151.956L219.78 151.181C220.396 150.283 220.703 149.223 220.66 148.15L216.533 154.044C217.101 155.379 217.218 156.852 216.867 158.254C215.746 161.62 213.601 164.589 210.707 166.783C209.37 167.67 208.182 167.926 207.143 167.55L206.078 169.082L205.146 168.349L206.158 166.893C205.842 166.392 205.64 165.834 205.563 165.254C205.485 164.674 205.535 164.085 205.709 163.525C206.185 161.647 206.969 159.854 208.032 158.212L210.056 159.138C209.608 159.895 209.248 160.697 208.982 161.529C208.791 162.1 208.705 162.698 208.727 163.297ZM219.798 147.35C219.307 147.396 218.844 147.591 218.478 147.906C217.456 148.713 216.702 149.787 216.304 150.996C216.122 151.51 216.071 152.059 216.154 152.596L219.798 147.35ZM209.519 164.19C209.79 164.229 210.066 164.21 210.328 164.135C210.589 164.059 210.83 163.928 211.033 163.752C212.291 162.814 213.214 161.526 213.673 160.064C213.848 159.479 213.833 158.856 213.629 158.279L209.519 164.19Z" fill="white"/>
<path opacity="0.1" d="M229.724 147.67C230.375 143.544 229.724 140.235 227.682 138.61C223.186 135.082 213.602 140.808 206.202 151.392C203.091 155.751 200.795 160.594 199.417 165.706C200.174 160.873 202.682 154.92 206.65 149.202C214.016 138.618 223.634 132.901 228.131 136.421C230.56 138.315 231 142.534 229.724 147.67Z" fill="black"/>
<path d="M293.524 304.644L286.132 305.318L282.366 288.84L289.758 288.166L293.524 304.644Z" fill="#B55B52"/>
<path d="M334.699 294.456L327.826 297.032L321.2 281.405L328.073 278.828L334.699 294.456Z" fill="#B55B52"/>
<path d="M325.829 293.799L333.362 290.212C333.491 290.151 333.64 290.135 333.78 290.169C333.92 290.203 334.044 290.284 334.127 290.397L337.946 295.694C338.043 295.831 338.108 295.986 338.136 296.149C338.165 296.313 338.156 296.48 338.111 296.639C338.066 296.799 337.985 296.948 337.875 297.075C337.765 297.202 337.627 297.306 337.471 297.378C334.831 298.59 333.67 299.188 330.352 300.746C328.31 301.714 323.761 303.996 320.945 305.334C318.129 306.673 316.598 304.08 317.645 303.28C322.335 299.701 323.884 296.999 324.914 294.734C325.095 294.329 325.419 293.998 325.829 293.799Z" fill="#263238"/>
<path d="M284.689 301.647H293.577C293.736 301.647 293.89 301.698 294.015 301.79C294.141 301.883 294.231 302.013 294.272 302.16L296.208 308.896C296.256 309.055 296.265 309.223 296.233 309.385C296.201 309.548 296.13 309.701 296.024 309.833C295.919 309.964 295.782 310.069 295.626 310.141C295.47 310.212 295.299 310.247 295.126 310.243C292.019 310.193 290.532 310.243 286.625 310.243H274.692C271.445 310.243 270.732 307.094 272.052 306.816C278.08 305.537 281.556 303.777 283.413 302.101C283.76 301.797 284.218 301.634 284.689 301.647Z" fill="#263238"/>
<path opacity="0.2" d="M282.374 288.848L284.31 297.335H291.861L289.766 288.166L282.374 288.848Z" fill="black"/>
<path opacity="0.2" d="M328.073 278.837L321.2 281.413L324.623 289.463L331.487 286.886L328.073 278.837Z" fill="black"/>
<path d="M275.915 112.744C281.794 112.095 285.595 114.773 285.859 120.389C286.634 140.185 288.922 144.74 292.38 154.978L263.067 162.784C252.648 141.195 248.987 131.015 247.826 126.224C247.584 125.111 247.73 123.952 248.242 122.926C248.754 121.899 249.603 121.062 250.659 120.541C258.462 116.382 267.044 113.733 275.915 112.744Z" fill="#263238"/>
<path d="M267.001 99.4739C267.353 103.793 268.523 111.262 272.281 113.241C272.281 113.241 271.726 115.91 262.011 124.81C256.018 119.977 259.081 116.735 259.081 116.735C263.542 114.369 262.495 111.287 260.735 108.315L267.001 99.4739Z" fill="#B55B52"/>
<path opacity="0.2" d="M266.323 100.442C266.964 102.897 267.054 105.454 266.587 107.944C266.253 109.628 264.334 110.908 262.187 111.641C261.894 110.471 261.413 109.352 260.762 108.323L266.323 100.442Z" fill="black"/>
<path d="M268.726 91.3149C270.16 98.2951 270.926 101.217 268.268 105.629C264.264 112.298 254.989 112.466 251.398 106.033C248.169 100.249 246.356 89.8077 252.639 85.3114C254.021 84.3151 255.646 83.6734 257.36 83.4474C259.074 83.2215 260.82 83.4186 262.432 84.0202C264.044 84.6218 265.469 85.6078 266.57 86.8846C267.672 88.1614 268.414 89.6864 268.726 91.3149Z" fill="#B55B52"/>
<path d="M272.536 95.567C272.643 96.24 272.61 96.9267 272.437 97.5872C272.265 98.2477 271.958 98.869 271.533 99.4149C270.389 100.872 268.664 100.164 268.013 98.5729C267.432 97.1247 267.318 94.6155 268.937 93.7399C269.291 93.5539 269.688 93.4552 270.092 93.4525C270.496 93.4498 270.895 93.5433 271.251 93.7245C271.608 93.9057 271.913 94.1689 272.137 94.4905C272.361 94.8122 272.498 95.1821 272.536 95.567Z" fill="#B55B52"/>
<path d="M262.328 87.6185C262.055 90.2877 264.29 94.8513 268.488 95.9122C272.835 91.1297 269.966 84.5705 265.971 84.4358C261.976 84.301 262.328 87.6185 262.328 87.6185Z" fill="#263238"/>
<path d="M256.467 80.3436C250.052 80.6215 243.17 83.358 245.555 92.9736C251.152 91.8537 266.728 90.1866 267.925 86.3639C266.35 81.455 260.674 80.1584 256.467 80.3436Z" fill="#263238"/>
<path d="M263.067 162.784C263.067 162.784 261.36 219.434 266.121 240.812C271.058 263.058 282.207 294.852 282.207 294.852L292.679 294.203C292.679 294.203 285.912 252.634 283.879 235.482C281.01 211.839 284.574 157.05 284.574 157.05L263.067 162.784Z" fill="#FF9925"/>
<path opacity="0.2" d="M277.816 180.5C278.291 175.363 282.339 176.348 283.246 183.303C282.85 194.249 282.568 206.955 282.797 218.078C278.432 209.919 276.734 192.186 277.816 180.5Z" fill="black"/>
<path d="M294.008 294.852L281.398 295.668L279.646 290.01L293.295 288.629L294.008 294.852Z" fill="#263238"/>
<path d="M273.407 160.031C273.407 160.031 282.33 207.519 294.448 233.074C304.234 253.711 321.965 286.962 321.965 286.962L331.584 283.518C331.584 283.518 316.545 245.771 311.106 231.255C297.563 195.049 304.946 173.073 292.38 154.979L273.407 160.031Z" fill="#FF9925"/>
<path d="M332.719 284.394L321.622 288.09L318.463 282.651L331.672 279.519L332.719 284.394Z" fill="#263238"/>
<path d="M292.336 153.244L294.395 155.408C294.554 155.576 294.395 155.837 294.026 155.922L263.287 164.114C263.023 164.182 262.768 164.114 262.706 163.963L261.712 161.521C261.642 161.352 261.826 161.142 262.117 161.066L291.799 153.16C291.888 153.127 291.985 153.117 292.08 153.132C292.174 153.147 292.262 153.185 292.336 153.244Z" fill="#263238"/>
<path d="M289.274 157.454L290.074 157.235C290.233 157.193 290.33 157.084 290.286 156.991L288.966 153.833C288.966 153.741 288.772 153.699 288.614 153.741L287.813 153.951C287.654 153.951 287.558 154.103 287.593 154.195L288.922 157.361C288.957 157.454 289.115 157.496 289.274 157.454Z" fill="#FF9925"/>
<path d="M265.602 163.752L266.402 163.542C266.552 163.542 266.658 163.39 266.614 163.297L265.294 160.14C265.294 160.047 265.091 160.005 264.933 160.047L264.141 160.258C263.982 160.258 263.886 160.409 263.921 160.502L265.241 163.668C265.285 163.761 265.443 163.794 265.602 163.752Z" fill="#FF9925"/>
<path d="M277.438 160.603L278.238 160.393C278.397 160.35 278.494 160.241 278.45 160.148L277.13 156.982C277.13 156.89 276.927 156.848 276.769 156.89L275.977 157.1C275.818 157.1 275.722 157.26 275.757 157.353L277.086 160.51C277.121 160.603 277.279 160.645 277.438 160.603Z" fill="#FF9925"/>
<path d="M258.359 95.988C258.509 96.5522 258.359 97.0826 257.946 97.1752C257.532 97.2679 257.127 96.8974 256.978 96.3332C256.828 95.7691 256.978 95.2471 257.391 95.146C257.805 95.045 258.21 95.407 258.359 95.988Z" fill="#263238"/>
<path d="M251.75 97.6214C251.909 98.1772 251.75 98.7076 251.337 98.8087C250.923 98.9097 250.518 98.5224 250.369 97.9667C250.219 97.4109 250.369 96.8721 250.782 96.7794C251.196 96.6868 251.601 97.0573 251.75 97.6214Z" fill="#263238"/>
<path d="M250.958 96.7711L249.454 96.7289C249.454 96.7289 250.457 97.6066 250.958 96.7711Z" fill="#263238"/>
<path d="M253.766 98.1435C253.593 99.5496 253.22 100.926 252.657 102.236C253.01 102.365 253.388 102.419 253.766 102.392C254.143 102.366 254.509 102.261 254.839 102.084L253.766 98.1435Z" fill="#A02724"/>
<path d="M257.426 103.776C257.393 103.771 257.361 103.756 257.336 103.733C257.311 103.711 257.294 103.682 257.286 103.65C257.279 103.629 257.277 103.607 257.28 103.585C257.282 103.564 257.29 103.542 257.301 103.524C257.313 103.505 257.328 103.488 257.347 103.475C257.365 103.462 257.386 103.453 257.409 103.448C258.14 103.282 258.821 102.953 259.394 102.488C259.968 102.023 260.418 101.434 260.709 100.771C260.716 100.749 260.727 100.728 260.743 100.711C260.758 100.693 260.777 100.679 260.798 100.669C260.82 100.658 260.843 100.652 260.867 100.651C260.891 100.65 260.915 100.653 260.938 100.661C260.98 100.676 261.016 100.706 261.037 100.745C261.058 100.784 261.064 100.829 261.052 100.872C260.749 101.589 260.271 102.226 259.659 102.731C259.047 103.236 258.318 103.595 257.532 103.776C257.497 103.786 257.461 103.786 257.426 103.776Z" fill="#263238"/>
<path d="M259.653 93.462C259.59 93.4543 259.531 93.4277 259.485 93.3862C259.144 93.1125 258.739 92.9208 258.304 92.827C257.869 92.7333 257.418 92.7403 256.986 92.8473C256.896 92.874 256.799 92.8661 256.715 92.8252C256.632 92.7843 256.568 92.7137 256.537 92.6284C256.521 92.5865 256.514 92.5418 256.516 92.497C256.518 92.4523 256.53 92.4084 256.551 92.3682C256.571 92.328 256.6 92.2922 256.636 92.2631C256.671 92.234 256.713 92.2122 256.757 92.199C257.302 92.0575 257.874 92.0434 258.425 92.1577C258.977 92.272 259.491 92.5114 259.925 92.8557C259.984 92.9036 260.026 92.9682 260.043 93.0401C260.061 93.112 260.054 93.1875 260.023 93.2553C259.993 93.3232 259.94 93.3798 259.874 93.417C259.807 93.4542 259.729 93.47 259.653 93.462Z" fill="#263238"/>
<path d="M247.817 95.466H247.746C247.702 95.4518 247.662 95.4293 247.627 95.4C247.592 95.3707 247.563 95.335 247.543 95.2951C247.522 95.2552 247.51 95.2118 247.508 95.1674C247.505 95.123 247.511 95.0786 247.526 95.0366C247.698 94.5222 247.996 94.0549 248.396 93.6739C248.795 93.2929 249.285 93.0094 249.823 92.8474C249.868 92.836 249.915 92.8333 249.961 92.8395C250.008 92.8456 250.052 92.8605 250.092 92.8832C250.132 92.9059 250.167 92.936 250.195 92.9718C250.223 93.0076 250.243 93.0483 250.254 93.0915C250.276 93.1797 250.26 93.2723 250.211 93.3495C250.161 93.4266 250.082 93.4822 249.99 93.5041C249.572 93.6408 249.195 93.871 248.888 94.1756C248.582 94.4803 248.357 94.8505 248.23 95.2555C248.2 95.333 248.142 95.3973 248.066 95.4361C247.989 95.4749 247.901 95.4856 247.817 95.466Z" fill="#263238"/>
<path d="M282.26 125.997C279.972 130.51 277.596 134.939 275.088 139.343C273.838 141.549 272.589 143.755 271.26 145.927C269.931 148.099 268.62 150.28 267.045 152.461C266.684 153 266.235 153.572 265.813 154.145L265.654 154.347L265.575 154.456L265.443 154.616C265.258 154.835 265.074 155.021 264.889 155.206C264.552 155.532 264.191 155.833 263.806 156.107C262.539 156.994 261.162 157.726 259.706 158.288C257.136 159.28 254.488 160.074 251.786 160.662C246.613 161.806 241.36 162.591 236.069 163.011L235.47 159.424C237.926 158.801 240.425 158.144 242.88 157.462C245.335 156.78 247.773 156.056 250.149 155.265C252.462 154.519 254.723 153.63 256.916 152.604C257.841 152.168 258.711 151.634 259.512 151.013C259.643 150.908 259.764 150.793 259.873 150.667C259.905 150.63 259.934 150.591 259.961 150.55L260.154 150.263C260.462 149.8 260.779 149.362 261.096 148.84C262.346 146.828 263.578 144.672 264.774 142.517L268.338 135.975L275.378 122.772L282.26 125.997Z" fill="#B55B52"/>
<path d="M237.882 159.458L232.698 157.555L233.138 164.552C233.138 164.552 237.213 164.552 239.096 162.152L237.882 159.458Z" fill="#B55B52"/>
<path d="M228.624 157.757L227.515 162.902L233.138 164.552L232.698 157.555L228.624 157.757Z" fill="#B55B52"/>
<path d="M275.88 116.364C272.985 117.636 269.623 129.146 269.623 129.146L282.163 130.51C282.163 130.51 284.592 124.919 284.099 122.048C283.36 117.459 279.18 114.916 275.88 116.364Z" fill="#263238"/>
<path d="M322.08 295.854C322.031 295.774 321.993 295.689 321.965 295.601C321.925 295.507 321.911 295.404 321.927 295.303C321.942 295.202 321.986 295.107 322.054 295.028C322.661 294.321 325.353 294.607 325.653 294.641C325.687 294.643 325.72 294.656 325.747 294.677C325.774 294.698 325.793 294.727 325.802 294.759C325.814 294.79 325.815 294.824 325.805 294.855C325.796 294.887 325.776 294.915 325.75 294.936C324.984 295.55 323.558 296.536 322.643 296.283C322.523 296.253 322.411 296.2 322.313 296.126C322.216 296.052 322.137 295.959 322.08 295.854ZM325.186 294.936C324.104 294.852 322.652 294.868 322.326 295.239C322.301 295.278 322.288 295.323 322.288 295.369C322.288 295.415 322.301 295.46 322.326 295.5C322.352 295.607 322.406 295.705 322.483 295.786C322.56 295.867 322.658 295.928 322.766 295.963C323.25 296.098 324.148 295.719 325.204 294.936H325.186Z" fill="#FF9925"/>
<path d="M322.74 293.53C322.706 293.468 322.679 293.403 322.661 293.336C322.624 293.206 322.635 293.067 322.691 292.944C322.746 292.82 322.844 292.718 322.969 292.654C323.083 292.582 323.212 292.536 323.348 292.517C323.483 292.498 323.621 292.507 323.752 292.544C324.799 292.814 325.767 294.658 325.811 294.734C325.827 294.759 325.835 294.788 325.835 294.818C325.835 294.847 325.827 294.876 325.811 294.902C325.793 294.926 325.77 294.946 325.742 294.959C325.714 294.973 325.684 294.979 325.653 294.978C324.533 294.841 323.501 294.328 322.74 293.53ZM325.301 294.548C324.94 293.942 324.271 293.024 323.655 292.864C323.574 292.84 323.489 292.833 323.405 292.844C323.321 292.856 323.241 292.886 323.171 292.932C322.978 293.05 322.978 293.159 323.004 293.235C323.136 293.723 324.438 294.405 325.327 294.582L325.301 294.548Z" fill="#FF9925"/>
<path d="M280.72 303.044C280.104 303.092 279.489 302.953 278.96 302.648C278.821 302.552 278.707 302.426 278.629 302.279C278.551 302.133 278.511 301.971 278.511 301.806C278.499 301.717 278.513 301.627 278.552 301.545C278.591 301.463 278.653 301.393 278.731 301.343C279.532 300.821 282.559 302.135 283.131 302.404C283.166 302.42 283.194 302.445 283.213 302.477C283.232 302.508 283.24 302.545 283.237 302.581C283.232 302.616 283.216 302.649 283.19 302.674C283.165 302.7 283.132 302.717 283.096 302.724C282.318 302.91 281.522 303.018 280.72 303.044ZM279.303 301.579C279.181 301.572 279.059 301.598 278.951 301.655C278.951 301.655 278.881 301.714 278.89 301.815C278.892 301.925 278.921 302.034 278.974 302.132C279.028 302.229 279.104 302.314 279.198 302.379C279.717 302.758 280.958 302.808 282.542 302.522C281.528 302.053 280.444 301.735 279.33 301.579H279.303Z" fill="#FF9925"/>
<path d="M283.14 302.758H283.07C282.066 302.371 280.042 300.813 280.157 300.013C280.157 299.836 280.306 299.617 280.764 299.567C282.524 299.365 283.281 302.438 283.316 302.564C283.321 302.595 283.319 302.627 283.308 302.656C283.297 302.686 283.279 302.712 283.254 302.733C283.22 302.753 283.18 302.762 283.14 302.758ZM280.931 299.878H280.808C280.623 299.878 280.526 299.954 280.509 300.038C280.447 300.501 281.846 301.722 282.867 302.261C282.63 301.529 281.996 299.878 280.931 299.878Z" fill="#FF9925"/>
<path d="M257.567 95.146H256.054C256.054 95.146 257.066 95.9899 257.567 95.146Z" fill="#263238"/>
<path d="M261.026 310.252H309.179C309.511 310.252 309.828 310.378 310.063 310.602C310.297 310.826 310.429 311.13 310.429 311.447V315.337H259.785V311.447C259.785 311.132 259.915 310.829 260.148 310.605C260.38 310.381 260.696 310.254 261.026 310.252Z" fill="#263238"/>
<path d="M310.86 328.212H260.216V333.289H310.86V328.212Z" fill="#263238"/>
<path opacity="0.5" d="M310.86 328.212H277.376V333.289H310.86V328.212Z" fill="black"/>
<path d="M282.251 315.329L276.558 349.43C276.51 349.71 276.36 349.966 276.134 350.151C275.909 350.335 275.622 350.438 275.326 350.44H272.536C272.356 350.44 272.178 350.402 272.014 350.33C271.85 350.258 271.705 350.152 271.588 350.021C271.471 349.89 271.385 349.736 271.336 349.57C271.287 349.404 271.276 349.23 271.304 349.059L276.945 315.295L282.251 315.329Z" fill="#263238"/>
<path opacity="0.5" d="M282.251 315.329L281.82 317.922H276.505L276.945 315.329H282.251Z" fill="black"/>
<path d="M265.091 315.329L259.398 349.43C259.35 349.71 259.2 349.966 258.975 350.151C258.749 350.335 258.463 350.438 258.166 350.44H255.376C255.196 350.44 255.018 350.402 254.854 350.33C254.69 350.258 254.545 350.152 254.428 350.021C254.311 349.89 254.225 349.736 254.176 349.57C254.127 349.404 254.116 349.23 254.144 349.059L259.785 315.295L265.091 315.329Z" fill="#263238"/>
<path d="M316.061 349.093L310.429 315.329H305.149L310.816 349.43C310.862 349.711 311.011 349.967 311.237 350.153C311.463 350.338 311.751 350.44 312.048 350.44H314.829C315.006 350.439 315.18 350.402 315.341 350.332C315.502 350.262 315.645 350.159 315.762 350.032C315.878 349.905 315.965 349.755 316.017 349.593C316.068 349.432 316.083 349.261 316.061 349.093Z" fill="#263238"/>
<path opacity="0.5" d="M310.86 317.922L310.429 315.329H305.114L305.545 317.922H310.86Z" fill="black"/>
<path d="M298.901 349.093L293.269 315.329H287.989L293.656 349.43C293.702 349.711 293.851 349.967 294.077 350.153C294.303 350.338 294.591 350.44 294.888 350.44H297.669C297.846 350.439 298.02 350.402 298.181 350.332C298.342 350.262 298.485 350.159 298.602 350.032C298.718 349.905 298.805 349.755 298.857 349.593C298.908 349.432 298.923 349.261 298.901 349.093Z" fill="#263238"/>
<path opacity="0.5" d="M298.901 349.093L293.269 315.329H287.989L293.656 349.43C293.702 349.711 293.851 349.967 294.077 350.153C294.303 350.338 294.591 350.44 294.888 350.44H297.669C297.846 350.439 298.02 350.402 298.181 350.332C298.342 350.262 298.485 350.159 298.602 350.032C298.718 349.905 298.805 349.755 298.857 349.593C298.908 349.432 298.923 349.261 298.901 349.093Z" fill="black"/>
<path opacity="0.5" d="M276.945 310.252H309.179C309.511 310.252 309.828 310.378 310.063 310.602C310.297 310.826 310.429 311.13 310.429 311.447V315.337H276.989V310.285L276.945 310.252Z" fill="black"/>
<path d="M128.286 345.835L135.335 333.457L110.123 312.315L108.152 345.835H128.286Z" fill="#FF9925"/>
<path opacity="0.1" d="M128.286 345.835L135.335 333.457L110.123 312.315L108.152 345.835H128.286Z" fill="black"/>
<path d="M215.178 204.791C229.319 195.529 241.164 196.481 245.098 199.184C249.031 201.886 236.535 222.414 236.535 222.414C231.862 221.115 227.536 218.869 223.851 215.828C220.165 212.787 217.207 209.023 215.178 204.791Z" fill="#FF9925"/>
<path opacity="0.2" d="M221.91 214.095C229.874 206.61 237.996 204.21 240.196 205.465C242.396 206.719 235.33 221.151 235.33 221.151C235.33 221.151 225.782 222.465 221.91 214.095Z" fill="black"/>
<path d="M92.3032 233.823L91.5024 233.436C93.7133 229.273 96.3141 225.311 99.2728 221.598L99.9856 222.12C97.0643 225.793 94.4932 229.71 92.3032 233.823Z" fill="#FF9925"/>
<path d="M88.1144 243.338L87.2344 243.06C87.9032 241.182 88.66 239.305 89.4872 237.486L90.3144 237.831C89.5224 239.616 88.7744 241.469 88.1144 243.338Z" fill="#FF9925"/>
<path d="M252.657 266.703C252.657 308.509 219.762 342.391 172.278 342.391C124.793 342.391 86.3016 308.509 86.3016 266.703C86.3016 224.898 124.793 191.016 172.278 191.016C219.762 191.016 252.657 224.898 252.657 266.703Z" fill="#FF9925"/>
<path opacity="0.1" d="M160.82 334.375L157.379 341.263C159.867 341.65 162.392 341.931 164.956 342.105L160.82 334.375Z" fill="black"/>
<path d="M155.61 350.474L165.502 333.457L133.866 322.393L129.818 350.474H155.61Z" fill="#FF9925"/>
<path d="M201.687 350.474L193.116 333.457L223.238 322.393L225.236 350.474H201.687Z" fill="#FF9925"/>
<path opacity="0.2" d="M223.326 277.641C223.326 288.958 212.872 298.127 200.015 298.127C187.158 298.127 176.748 288.958 176.748 277.641C176.748 266.325 187.167 257.155 200.015 257.155C212.863 257.155 223.326 266.325 223.326 277.641Z" fill="black"/>
<path opacity="0.2" d="M192.289 284.343C194.471 284.343 196.24 281.192 196.24 277.304C196.24 273.417 194.471 270.265 192.289 270.265C190.107 270.265 188.338 273.417 188.338 277.304C188.338 281.192 190.107 284.343 192.289 284.343Z" fill="black"/>
<path opacity="0.4" d="M164.032 239.431C165.167 242.74 164.12 246.352 161.7 247.489C159.28 248.626 156.42 246.858 155.258 243.549C154.097 240.239 155.162 236.627 157.582 235.491C160.002 234.354 162.897 236.114 164.032 239.431Z" fill="black"/>
<path opacity="0.4" d="M225.28 239.583C224.4 242.892 225.482 246.462 227.665 247.548C229.847 248.634 232.311 246.832 233.174 243.515C234.036 240.197 232.971 236.636 230.789 235.55C228.606 234.463 226.16 236.265 225.28 239.583Z" fill="black"/>
<path opacity="0.2" d="M213.312 284.343C215.494 284.343 217.263 281.192 217.263 277.304C217.263 273.417 215.494 270.265 213.312 270.265C211.13 270.265 209.361 273.417 209.361 277.304C209.361 281.192 211.13 284.343 213.312 284.343Z" fill="black"/>
<path d="M147.145 204.101C131.824 191.959 118.105 191.016 113.37 193.222C108.636 195.428 120.947 219.232 120.947 219.232C120.947 219.232 137.755 218.289 147.145 204.101Z" fill="#FF9925"/>
<path opacity="0.2" d="M138.521 212.841C130.117 203.579 121.035 199.722 118.386 200.682C115.738 201.642 122.452 218.078 122.452 218.078C122.452 218.078 133.276 221.059 138.521 212.841Z" fill="black"/>
<path opacity="0.4" d="M178.086 197.601H191.03C191.03 197.601 188.214 194.637 178.658 193.736C173.245 193.315 167.798 193.598 162.466 194.578C162.466 194.578 173.131 194.35 178.086 197.601Z" fill="black"/>
</svg>
