<svg width="430" height="410" viewBox="0 0 430 410" fill="none" xmlns="http://www.w3.org/2000/svg">
<path d="M79.292 185.771C79.1544 184.377 78.8276 182.999 78.5868 181.614C77.6236 178.334 76.6862 175.054 74.8802 172.052C74.391 171.23 73.8147 170.458 73.1602 169.748C71.1134 167.575 68.6624 167.288 66.048 168.781C64.1482 169.933 62.5436 171.477 61.3524 173.299C58.6348 177.21 56.7686 181.458 57.1126 186.222C57.2002 188.535 57.8626 190.796 59.0452 192.817C60.2278 194.838 61.8969 196.563 63.9152 197.85C68.714 200.949 74.3642 199.67 77.3226 194.914C78.999 192.15 79.6901 188.942 79.292 185.771Z" fill="#EBEBEB"/>
<path d="M104.739 189.297C107.552 184.377 107.663 179.26 104.739 174.34C102.067 169.748 97.7364 166.237 92.5533 164.459C91.6203 164.138 90.6448 163.942 89.6551 163.877C88.4758 163.702 87.2702 163.943 86.2636 164.554C85.257 165.165 84.5183 166.105 84.1855 167.198C83.3476 169.622 83.0977 172.196 83.4545 174.726C83.6265 176.636 83.9275 178.539 84.1683 180.466C84.8219 183.959 85.9829 187.231 88.4683 189.961C89.9909 191.733 92.0375 193.028 94.3421 193.676C96.3388 194.208 98.4675 194.062 100.364 193.264C102.261 192.465 103.807 191.063 104.739 189.297Z" fill="#EBEBEB"/>
<path d="M120.03 207.46C124.588 204.27 126.429 199.842 125.956 194.512C125.86 193.901 125.728 193.296 125.56 192.7C124.854 189.135 123.059 185.849 120.4 183.254C120.142 183.016 119.858 182.778 119.54 182.565C116.633 180.441 113.856 180.703 111.456 183.385C109.777 185.366 108.529 187.646 107.784 190.092C106.692 193.258 105.754 196.456 106.193 199.859C106.405 201.923 107.172 203.9 108.42 205.599C111.267 209.289 116.1 210.15 120.03 207.46Z" fill="#EBEBEB"/>
<path d="M63.1842 229.551C63.2358 230.059 63.3304 230.568 63.4336 231.232C64.7236 236.111 68.241 238.956 73.401 240.022C78.8534 241.146 83.9532 239.973 88.6832 237.365C91.6935 235.645 95.2167 234.924 98.7022 235.315C104.06 235.865 109.125 234.979 113.606 231.994C117.364 229.493 119.626 226.107 119.402 221.589C119.313 219.907 118.865 218.26 118.086 216.748C117.307 215.237 116.213 213.893 114.87 212.798C113.371 211.528 111.723 210.428 109.96 209.518C106.107 207.556 102.621 205.001 99.6396 201.958C98.2266 200.484 96.5126 199.301 94.6028 198.482C92.693 197.663 90.6278 197.224 88.5339 197.194C86.44 197.163 84.3616 197.541 82.4263 198.304C80.491 199.066 78.7396 200.198 77.2796 201.63C75.3573 203.467 73.9905 205.764 73.3236 208.28C72.4694 211.601 70.7374 214.659 68.2926 217.161C65.1831 220.157 63.3453 224.143 63.1326 228.354C63.1206 228.753 63.1378 229.153 63.1842 229.551Z" fill="#EBEBEB"/>
<path d="M45.8209 208.436C47.2055 214.274 50.4649 217.981 55.8743 219.776C61.2837 221.572 66.3921 218.743 67.2521 213.348C67.5472 211.469 67.3613 209.55 66.7103 207.755C65.2139 203.483 62.1437 200.277 58.7381 197.341C57.509 196.305 56.1376 195.433 54.6617 194.75C51.6173 193.331 48.9685 194.209 47.3173 197.021C45.9786 199.479 45.3578 202.235 45.5199 205C45.5801 206.328 45.7521 207.64 45.8209 208.436Z" fill="#EBEBEB"/>
<path d="M172.662 68.265C172.568 66.1248 172.189 63.9928 171.948 61.8608C170.762 56.7604 169.626 51.6518 167.124 46.9532C166.448 45.661 165.636 44.4382 164.699 43.3042C161.766 39.8274 158.051 39.155 153.931 41.2542C150.928 42.8617 148.339 45.089 146.355 47.7732C141.866 53.5132 138.615 59.8682 138.735 67.1744C138.856 74.4806 141.823 80.9094 148.109 85.4768C155.153 90.5936 163.899 89.0848 168.844 82.0574C171.649 77.9755 172.989 73.1354 172.662 68.265Z" fill="#EBEBEB"/>
<path d="M211.199 75.686C215.937 68.3634 216.557 60.5898 212.583 52.849C208.902 45.6227 202.599 39.913 194.842 36.777C193.446 36.214 191.976 35.836 190.473 35.6536C186.379 35.1042 183.49 36.6868 181.813 40.2948C180.136 43.9028 179.921 47.8306 180.041 51.7748C180.127 54.7022 180.428 57.6296 180.626 60.557C181.314 65.9444 182.793 71.0284 186.345 75.399C188.5 78.2231 191.496 80.3633 194.945 81.5408C197.946 82.517 201.209 82.4665 204.175 81.3982C207.141 80.3298 209.624 78.3101 211.199 75.686Z" fill="#EBEBEB"/>
<path d="M232.957 104.583C240.198 100.081 243.38 93.48 243.139 85.28C243.058 84.3732 242.917 83.4722 242.718 82.5822C241.772 77.0144 239.648 71.9222 235.614 67.7074C235.237 67.3104 234.835 66.9353 234.41 66.584C230.153 63.1072 225.896 63.304 222 67.1498C219.266 70.0367 217.158 73.4118 215.8 77.08C213.856 81.8278 212.136 86.633 212.506 91.84C212.659 94.9931 213.657 98.0562 215.404 100.737C219.403 106.748 226.739 108.445 232.957 104.583Z" fill="#EBEBEB"/>
<path d="M144.188 133.824C144.188 134.644 144.325 135.39 144.42 136.415C145.968 143.959 151.093 148.6 158.876 150.634C167.098 152.791 174.993 151.405 182.449 147.797C187.2 145.418 192.642 144.602 197.929 145.476C206.056 146.747 213.873 145.796 220.977 141.606C226.937 138.08 230.643 133.086 230.747 126.182C230.765 123.604 230.228 121.05 229.171 118.678C228.113 116.306 226.557 114.166 224.598 112.389C222.425 110.318 220.007 108.496 217.391 106.961C211.669 103.654 206.556 99.4738 202.255 94.587C200.228 92.2149 197.714 90.2638 194.866 88.8542C192.018 87.4446 188.897 86.6063 185.696 86.3912C182.495 86.176 179.282 86.5886 176.255 87.6033C173.228 88.618 170.451 90.2134 168.096 92.291C165.021 94.945 162.762 98.3464 161.56 102.131C159.953 107.12 157.037 111.636 153.089 115.251C148.161 119.818 144.867 125.247 144.248 131.922C144.183 132.554 144.163 133.189 144.188 133.824Z" fill="#EBEBEB"/>
<path d="M119.54 100.188C121.14 109.208 125.792 115.136 133.894 118.318C142.175 121.598 150.044 117.58 151.842 109.413C152.454 106.564 152.339 103.617 151.506 100.819C149.589 94.177 145.185 89.0356 140.24 84.2878C138.45 82.6015 136.424 81.1584 134.22 79.9992C129.697 77.5884 125.62 78.7118 122.808 82.8856C120.374 86.551 119.523 90.6756 119.368 94.9314C119.308 96.9486 119.54 98.9658 119.54 100.188Z" fill="#EBEBEB"/>
<path d="M348.945 154.89C349.668 153.668 350.227 152.356 350.854 151.085C352.033 147.862 353.237 144.648 353.538 141.245C353.641 140.307 353.641 139.362 353.538 138.424C353.159 135.53 351.336 133.939 348.283 133.758C346.033 133.672 343.792 134.064 341.721 134.906C337.155 136.653 333.07 139.121 330.498 143.221C329.192 145.171 328.387 147.388 328.149 149.691C327.911 151.993 328.248 154.317 329.131 156.472C331.212 161.622 336.621 163.647 341.902 161.351C344.924 159.985 347.397 157.717 348.945 154.89Z" fill="#EBEBEB"/>
<path d="M367.736 171.626C373.008 169.1 376.138 164.976 376.715 159.326C377.27 154.096 375.816 148.851 372.621 144.566C372.047 143.796 371.364 143.106 370.591 142.516C369.728 141.729 368.593 141.269 367.399 141.222C366.206 141.175 365.035 141.545 364.107 142.262C361.966 143.796 360.222 145.776 359.007 148.051C358.001 149.691 357.115 151.438 356.169 153.135C354.612 156.358 353.589 159.695 354.011 163.262C354.196 165.542 355.094 167.715 356.591 169.502C357.901 171.034 359.73 172.084 361.763 172.472C363.797 172.859 365.908 172.56 367.736 171.626Z" fill="#EBEBEB"/>
<path d="M369.447 194.824C375.098 194.693 379.26 192.052 382.055 187.444C382.333 186.911 382.58 186.363 382.795 185.804C384.345 182.478 384.83 178.789 384.188 175.201C384.12 174.855 384.031 174.513 383.921 174.176C382.803 170.896 380.369 169.56 376.818 170.437C374.261 171.147 371.876 172.332 369.8 173.922C367.014 175.931 364.33 178.022 362.653 181.072C361.602 182.875 361.057 184.906 361.071 186.968C361.123 191.593 364.64 194.947 369.447 194.824Z" fill="#EBEBEB"/>
<path d="M309.514 182.04C309.247 182.491 309.032 182.958 308.714 183.557C306.857 188.264 308.043 192.52 311.638 196.201C315.439 200.088 320.333 201.9 325.785 202.335C329.289 202.563 332.615 203.889 335.245 206.107C339.305 209.469 344 211.503 349.47 211.486C354.053 211.486 357.915 209.912 360.452 206.099C361.39 204.671 362.011 203.075 362.276 201.409C362.541 199.743 362.444 198.043 361.991 196.415C361.529 194.549 360.839 192.741 359.936 191.027C357.94 187.317 356.598 183.32 355.963 179.195C355.688 177.211 354.991 175.303 353.913 173.586C352.835 171.87 351.399 170.383 349.694 169.216C347.99 168.05 346.053 167.229 344.002 166.804C341.952 166.379 339.832 166.36 337.774 166.747C335.106 167.214 332.622 168.368 330.593 170.084C327.897 172.344 324.641 173.911 321.133 174.635C316.791 175.409 312.902 177.684 310.211 181.023C309.958 181.349 309.725 181.688 309.514 182.04Z" fill="#EBEBEB"/>
<path d="M307.88 155.283C305.524 160.835 305.979 165.648 309.342 170.043C312.705 174.439 318.604 174.914 322.534 170.954C323.911 169.565 324.909 167.876 325.441 166.034C326.766 161.704 326.164 157.407 325.123 153.143C324.735 151.623 324.131 150.161 323.326 148.797C321.674 145.976 318.983 145.255 315.938 146.665C313.364 147.955 311.204 149.884 309.686 152.249C308.929 153.397 308.31 154.586 307.88 155.283Z" fill="#EBEBEB"/>
<path d="M38.2271 364.654L82.4224 364.449L126.618 364.383L215 364.244L303.382 364.375L347.578 364.449L391.773 364.654L347.578 364.851L303.382 364.925L215 365.064L126.618 364.925L82.4224 364.851L38.2271 364.654Z" fill="#263238"/>
<path d="M185.064 114.439C190.636 118.055 198.6 117.719 198.6 117.719C198.6 117.719 203.038 111.405 202.676 104.993C202.375 99.6464 198.325 95.8662 194.317 96.7272C188.564 97.949 192.133 106.78 192.133 106.78C192.133 106.78 186.044 99.302 181.968 103.369C179.121 106.174 180.42 111.43 185.064 114.439Z" fill="#FF9925"/>
<path d="M201.541 80.6142C203.089 84.5994 207.561 87.3136 207.561 87.3136C207.561 87.3136 212.489 85.5424 214.88 81.9508C216.866 78.9578 216.204 75.44 213.702 74.4314C210.107 72.9882 208.473 79.0562 208.473 79.0562C208.473 79.0562 208.206 72.7996 204.371 73.4884C201.662 73.9804 200.251 77.285 201.541 80.6142Z" fill="#FF9925"/>
<path d="M352.695 174.972C353.598 179.137 357.562 182.458 357.562 182.458C357.562 182.458 362.722 181.409 365.638 178.202C368.08 175.529 367.977 171.954 365.638 170.601C362.309 168.658 359.738 174.422 359.738 174.422C359.738 174.422 360.46 168.198 356.556 168.338C353.864 168.436 351.946 171.503 352.695 174.972Z" fill="#FF9925"/>
<path d="M67.0113 182.491C73.5559 188.6 84.2801 189.928 84.2801 189.928C84.2801 189.928 91.8137 182.507 92.9403 173.848C93.8777 166.624 89.4143 160.646 83.8329 160.868C75.8349 161.196 78.3805 173.824 78.3805 173.824C78.3805 173.824 72.1197 162.434 65.6439 166.927C61.1461 170.068 61.5589 177.399 67.0113 182.491Z" fill="#FF9925"/>
<path d="M307.631 294.798C307.631 294.798 323.592 338.906 331.453 356.815C332.851 359.72 334.862 362.318 337.361 364.449C338.694 365.72 390.724 364.629 391.678 364.449C392.633 364.269 386.14 352.362 382.528 350.73C378.916 349.099 351.465 353.904 351.465 353.904C351.465 353.904 350.45 302.121 350.768 300.546C350.981 298.64 351.065 296.723 351.018 294.806L351.654 302.736C351.654 302.736 353.494 296.799 353.563 294.068C353.632 291.338 351.843 264.393 351.843 264.393L307.631 294.798Z" fill="#FF9925"/>
<path opacity="0.4" d="M307.631 294.798C307.631 294.798 323.592 338.906 331.453 356.815C332.851 359.72 334.862 362.318 337.361 364.449C338.694 365.72 390.724 364.629 391.678 364.449C392.633 364.269 386.14 352.362 382.528 350.73C378.916 349.099 351.465 353.904 351.465 353.904C351.465 353.904 350.45 302.121 350.768 300.546C350.981 298.64 351.065 296.723 351.018 294.806L351.654 302.736C351.654 302.736 353.494 296.799 353.563 294.068C353.632 291.338 351.843 264.393 351.843 264.393L307.631 294.798Z" fill="black"/>
<path d="M379.535 356.544C382.236 358.184 385.177 361.464 384.05 364.744C383.87 361.464 381.41 359.16 379.535 356.544Z" fill="#263238"/>
<path d="M384.867 356.241C387.576 357.881 390.517 361.161 389.391 364.441C389.202 361.161 386.751 358.857 384.867 356.241Z" fill="#263238"/>
<path opacity="0.1" d="M352.505 274.7C347.466 284.089 340.01 294.118 337.455 296.2C329.98 301.877 322.078 307.024 313.814 311.6C310.211 301.908 307.631 294.782 307.631 294.782L351.843 264.368C351.843 264.368 352.153 269.05 352.505 274.7Z" fill="black"/>
<path d="M145.589 327.442L142.511 339.193C116.883 320.333 92.5189 289.919 83.3771 260.981C81.4077 254.717 76.9013 241.137 76.8153 235.561C76.7207 229.682 79.9629 221.22 80.2553 220.539C80.1693 221.162 79.1459 228.887 80.2553 235.463C80.3069 234.405 80.3929 233.372 80.5133 232.331C84.4091 198.465 134.306 169.297 134.306 169.297C134.306 169.297 110.063 204.557 112.892 251.297C113.89 267.812 120.09 284.212 126.816 297.545C123.711 291.067 120.796 280.563 120.658 279.915C121.174 281.088 135.054 312.223 140.257 320.144L140.782 320.915C140.92 321.104 141.031 321.268 141.135 321.424C143.835 325.261 145.589 327.442 145.589 327.442Z" fill="#FF9925"/>
<path opacity="0.4" d="M145.589 327.442L142.511 339.193C116.883 320.333 92.5189 289.919 83.3771 260.981C81.4077 254.717 76.9013 241.137 76.8153 235.561C76.7207 229.682 79.9629 221.22 80.2553 220.539C80.1693 221.162 79.1459 228.887 80.2553 235.463C80.3069 234.405 80.3929 233.372 80.5133 232.331C84.4091 198.465 134.306 169.297 134.306 169.297C134.306 169.297 110.063 204.557 112.892 251.297C113.89 267.812 120.09 284.212 126.816 297.545C123.711 291.067 120.796 280.563 120.658 279.915C121.174 281.088 135.054 312.223 140.257 320.144L140.782 320.915C140.92 321.104 141.031 321.268 141.135 321.424C143.835 325.261 145.589 327.442 145.589 327.442Z" fill="black"/>
<path opacity="0.1" d="M145.589 327.442L142.511 339.193C139.251 336.799 136.018 334.224 132.844 331.477L137.6 315.61C138.606 317.479 139.492 319.029 140.223 320.136L140.748 320.907C140.885 321.096 140.997 321.26 141.1 321.415C143.835 325.261 145.589 327.442 145.589 327.442Z" fill="black"/>
<path d="M137.832 344.252C138.159 348.426 137.265 364.244 153.837 364.244H235.786C246.459 364.244 321.425 305.532 334.058 291.92C346.692 278.308 357.562 261.941 359.084 248.854C360.607 235.766 346.064 176.357 330.24 148.551C330.24 148.551 330.111 135.472 326.49 124.935C322.87 114.398 312.782 99.3102 301.344 95.858C289.906 92.4058 236.552 101.131 231.211 111.118C225.87 121.106 226.257 138.744 226.257 138.744C226.257 138.744 180.333 157.456 180.523 160.548C180.712 163.639 198.815 182.171 214.063 183.623C229.31 185.074 258.654 173.996 258.654 173.996C258.654 173.996 259.987 179.26 258.464 183.983C256.942 188.707 218.251 239.424 211.164 244.409C204.078 249.395 165.12 263.031 156.52 277.021C147.92 291.01 136.121 322.26 137.832 344.252Z" fill="#FF9925"/>
<path d="M137.832 344.252C138.159 348.426 137.265 364.244 153.837 364.244H235.786C246.459 364.244 321.425 305.532 334.058 291.92C346.692 278.308 357.562 261.941 359.084 248.854C360.607 235.766 346.064 176.357 330.24 148.551C330.24 148.551 330.111 135.472 326.49 124.935C322.87 114.398 312.782 99.3102 301.344 95.858C289.906 92.4058 236.552 101.131 231.211 111.118C225.87 121.106 226.257 138.744 226.257 138.744C226.257 138.744 180.333 157.456 180.523 160.548C180.712 163.639 198.815 182.171 214.063 183.623C229.31 185.074 258.654 173.996 258.654 173.996C258.654 173.996 259.987 179.26 258.464 183.983C256.942 188.707 218.251 239.424 211.164 244.409C204.078 249.395 165.12 263.031 156.52 277.021C147.92 291.01 136.121 322.26 137.832 344.252Z" fill="#FF9925"/>
<path opacity="0.3" d="M137.832 344.252C138.159 348.426 137.265 364.244 153.837 364.244H235.786C246.459 364.244 321.425 305.532 334.058 291.92C346.692 278.308 357.562 261.941 359.084 248.854C360.607 235.766 346.064 176.357 330.24 148.551C330.24 148.551 330.111 135.472 326.49 124.935C322.87 114.398 312.782 99.3102 301.344 95.858C289.906 92.4058 236.552 101.131 231.211 111.118C225.87 121.106 226.257 138.744 226.257 138.744C226.257 138.744 180.333 157.456 180.523 160.548C180.712 163.639 198.815 182.171 214.063 183.623C229.31 185.074 258.654 173.996 258.654 173.996C258.654 173.996 259.987 179.26 258.464 183.983C256.942 188.707 218.251 239.424 211.164 244.409C204.078 249.395 165.12 263.031 156.52 277.021C147.92 291.01 136.121 322.26 137.832 344.252Z" fill="black"/>
<path opacity="0.1" d="M164.14 275.381C158.034 283.023 150.827 327 158.619 342.621C165.249 355.913 202.9 363.17 225.501 364.252H153.846C137.256 364.252 138.151 348.434 137.832 344.261C136.112 322.276 147.929 291.018 156.512 277.021C165.094 263.023 204.147 249.403 211.207 244.409C218.268 239.415 256.942 188.707 258.508 183.983C260.073 179.26 258.705 173.996 258.705 173.996C258.705 173.996 270.367 168.731 274.667 166.46C274.667 166.46 277.729 177.12 277.737 183.131C277.746 189.141 225.277 243.811 216.264 247.796C207.252 251.781 170.28 267.755 164.14 275.381Z" fill="black"/>
<path opacity="0.2" d="M200.629 249.764C199.468 263.327 192.33 283.236 181.658 294.593C170.822 306.131 149.227 307.894 143.147 308.164C146.974 295.643 152.16 284.114 156.511 277.004C162.91 266.598 186.242 256.365 200.629 249.764Z" fill="black"/>
<path opacity="0.2" d="M211.491 255.733C212.747 260.998 223.875 261.851 229.216 259.579C234.556 257.308 237.601 249.329 233.215 244.409C228.829 239.489 209.96 249.346 211.491 255.733Z" fill="black"/>
<path opacity="0.2" d="M250.931 213.7C250.647 220.145 244.747 230.51 238.358 232.56C233.619 234.118 227.504 232.806 224.365 229.862C231.503 221.162 240.035 210.141 246.786 201.031C249.727 203.147 251.12 208.911 250.931 213.7Z" fill="black"/>
<path opacity="0.1" d="M323.928 226.32C325.054 221.261 325.734 215.996 325.106 211.019C325.09 210.918 325.11 210.814 325.164 210.725C325.218 210.637 325.301 210.568 325.402 210.531C325.502 210.493 325.612 210.49 325.715 210.52C325.817 210.551 325.906 210.614 325.966 210.699C326.766 211.519 329.019 213.856 329.354 214.217C329.354 213.905 329.354 213.594 329.294 213.298C329.199 212.257 329.053 211.224 328.864 210.207C328.46 208.155 327.885 206.137 327.144 204.172C326.402 202.213 325.487 200.317 324.409 198.506C323.317 196.669 322.01 194.98 320.754 193.225C320.703 193.151 320.849 193.053 320.926 193.118C322.645 194.587 324.149 196.27 325.398 198.12C326.635 199.865 327.7 201.715 328.58 203.647C329.461 205.599 330.141 207.629 330.61 209.707C330.851 210.789 331.031 211.872 331.16 212.987C331.362 214.058 331.362 215.155 331.16 216.226C330.98 216.931 329.887 216.824 329.578 216.332C329.389 216.029 326.533 212.683 326.095 212.232C326.654 217.033 326.051 221.891 324.332 226.435C324.263 226.623 323.876 226.55 323.928 226.32Z" fill="black"/>
<path opacity="0.1" d="M258.198 173.446C257.493 173.717 255.962 174.266 253.855 174.988L258.198 173.446Z" fill="black"/>
<path d="M233.92 355.134C233.92 355.134 231.736 362.514 233.413 364.154C235.09 365.794 306.212 364.974 306.341 364.154C306.47 363.334 295.419 349.074 288.427 348.344C281.435 347.614 259.084 353.797 259.084 353.797C259.084 353.797 299.917 305.286 287.928 276.34C282.656 263.589 251.034 258.628 210.528 274.224C173.703 288.394 182.578 351.419 202.788 358.324C222.998 365.228 233.92 355.134 233.92 355.134Z" fill="#FF9925"/>
<path opacity="0.3" d="M233.92 355.134C233.92 355.134 231.736 362.514 233.413 364.154C235.09 365.794 306.212 364.974 306.341 364.154C306.47 363.334 295.419 349.074 288.427 348.344C281.435 347.614 259.084 353.797 259.084 353.797C259.084 353.797 299.917 305.286 287.928 276.34C282.656 263.589 251.034 258.628 210.528 274.224C173.703 288.394 182.578 351.419 202.788 358.324C222.998 365.228 233.92 355.134 233.92 355.134Z" fill="black"/>
<path d="M213.082 272.994C231.323 265.983 269.24 256.143 284.987 271.035C297.56 283.72 288.96 306.008 282.08 319.636C275.712 331.763 268.002 343.207 259.084 353.773C263.246 348.295 267.176 342.67 270.814 336.881C280.67 321.087 298.549 289.927 284.729 273.011C270.367 257.431 231.228 267.066 213.125 273.011L213.082 272.994Z" fill="#263238"/>
<path d="M220.633 267.902C224.6 266.775 228.789 266.553 232.862 267.254C228.801 267.676 224.719 267.892 220.633 267.902Z" fill="#263238"/>
<path d="M233.61 364.244C233.367 364.144 233.158 363.981 233.006 363.774C232.854 363.567 232.765 363.324 232.75 363.071C232.534 361.597 232.485 360.104 232.604 358.619C232.976 353.701 233.808 348.824 235.09 344.047C235.356 343.096 235.606 342.145 235.95 341.202C235.829 342.178 235.666 343.154 235.537 344.129C235.253 345.958 234.453 350.96 234.144 352.854C233.696 355.757 233.18 358.66 233.017 361.587C233.017 362.481 232.707 363.703 233.679 364.244H233.61Z" fill="#263238"/>
<path d="M233.696 342.514C234.04 344.203 234.212 345.95 234.41 347.631C234.935 351.28 233.464 347.393 233.361 345.991C233.192 344.812 233.307 343.612 233.696 342.481V342.514Z" fill="#263238"/>
<path d="M291.927 356.544C294.636 358.184 297.577 361.464 296.451 364.744C296.261 361.464 293.81 359.16 291.927 356.544Z" fill="#263238"/>
<path d="M297.268 356.241C299.968 357.881 302.909 361.161 301.783 364.441C301.602 361.161 299.151 358.857 297.268 356.241Z" fill="#263238"/>
<path d="M330.24 147.838C330.24 147.838 332.252 129.207 333.164 127.617C334.076 126.026 343.69 123.804 346.356 125.665C349.022 127.526 331.59 149.297 331.59 149.297L330.24 147.838Z" fill="#455A64"/>
<path d="M334.729 145.271C334.489 145.599 334.248 145.903 334.033 146.198C332.863 145.78 331.719 145.378 330.593 145.009C330.593 144.656 330.679 144.287 330.722 143.894C332.04 144.325 333.376 144.785 334.729 145.271ZM337.61 136.251C335.667 135.587 333.775 134.947 331.909 134.349C331.857 134.71 331.805 135.079 331.762 135.456C333.568 136.046 335.417 136.653 337.301 137.309L338.376 137.686C338.9 137.858 339.434 138.047 339.958 138.244L340.62 137.309C339.967 137.071 339.33 136.842 338.685 136.637C338.316 136.448 337.98 136.333 337.61 136.21V136.251ZM341.283 127.461L340.208 127.1C339.038 126.698 337.868 126.28 336.768 125.944C336.123 126.132 335.529 126.329 335.048 126.534C336.664 127.059 338.316 127.592 340.001 128.174L341.068 128.535C342.478 129.011 343.897 129.519 345.368 130.044C345.548 129.691 345.72 129.363 345.875 129.043C344.293 128.469 342.762 127.928 341.283 127.42V127.461ZM340.732 125.148L340.208 127.1C340.113 127.453 340.01 127.805 339.924 128.166C339.201 130.741 338.43 133.436 337.61 136.251L337.301 137.309C336.553 139.826 335.753 142.426 334.91 145.083C335.546 144.263 336.234 143.352 336.94 142.393C337.438 140.794 337.92 139.22 338.376 137.686L338.685 136.637C339.545 133.816 340.285 131.102 340.99 128.527C341.102 128.174 341.197 127.813 341.283 127.461C341.515 126.641 341.73 125.821 341.953 125.042C341.549 125.017 341.145 125.066 340.732 125.107V125.148Z" fill="#37474F"/>
<path opacity="0.3" d="M330.24 147.838C330.24 147.838 332.45 128.158 336.26 127.756C340.07 127.354 331.659 145.476 330.24 147.838Z" fill="black"/>
<path d="M331.169 147.657C331.169 147.657 345.497 141.917 347.002 141.77C349.797 141.524 352.643 146.354 352.325 148.838C352.007 151.323 330.627 149.117 330.627 149.117L331.169 147.657Z" fill="#455A64"/>
<path d="M348.911 142.311L347.027 143.229L346.021 143.73C346.159 144.066 346.305 144.402 346.451 144.746L347.474 144.246C348.274 143.853 349.065 143.467 349.839 143.074C349.558 142.79 349.247 142.534 348.911 142.311ZM347.44 144.246L346.993 143.229C346.795 142.77 346.614 142.327 346.408 141.885L345.333 142.221L345.987 143.73C346.124 144.066 346.27 144.402 346.417 144.746C347.139 146.436 347.856 148.166 348.567 149.937C348.988 149.937 349.427 149.88 349.745 149.839C349.022 147.936 348.24 146.067 347.44 144.246Z" fill="#37474F"/>
<path d="M338.582 148.502C338.763 148.928 338.935 149.371 339.124 149.798L337.86 149.716L337.55 148.986C337.111 149.183 336.69 149.388 336.234 149.601L333.964 149.42L337.129 147.969C336.802 147.19 336.475 146.436 336.148 145.681L337.206 145.271L338.143 147.485C340.895 146.198 343.536 144.943 346.021 143.73C346.159 144.066 346.305 144.402 346.451 144.746C344 145.96 341.334 147.215 338.582 148.502Z" fill="#37474F"/>
<path opacity="0.3" d="M331.169 147.657C331.169 147.657 346.357 141.491 348.102 143.869C349.848 146.247 333.431 147.682 331.169 147.657Z" fill="black"/>
<path d="M258.387 173.742C259.144 176.382 315.061 190.625 319.352 188.723C322.56 187.296 333.8 150.06 331.238 146.714C330.154 145.304 328.013 148.797 301.722 159.342C289.528 164.238 257.768 171.61 258.387 173.742Z" fill="#455A64"/>
<path d="M266.316 170.248C266.318 170.227 266.318 170.205 266.316 170.183L265.241 170.544C265.238 170.563 265.238 170.582 265.241 170.601C265.43 171.118 265.654 171.651 265.843 172.184C266.213 172.085 266.583 171.987 266.961 171.905C266.738 171.38 266.523 170.79 266.316 170.248ZM267.348 172.93L266.247 173.225C266.772 174.627 267.314 176.062 267.856 177.538L269.206 177.948C268.587 176.226 267.967 174.545 267.348 172.93ZM280.025 179.031C279.913 178.678 279.784 178.342 279.672 177.997C278.717 175.308 277.763 172.717 276.825 170.257C276.688 169.912 276.559 169.568 276.438 169.232L275.733 167.444L274.624 167.772C274.856 168.346 275.097 168.953 275.32 169.551C275.458 169.888 275.587 170.224 275.725 170.576C276.662 173.036 277.625 175.636 278.571 178.325C278.692 178.662 278.821 179.014 278.932 179.367L279.448 180.851L280.773 181.204C280.532 180.474 280.274 179.736 280.025 179.031ZM298.807 173.02L297.723 173.389C298.624 175.92 299.512 178.539 300.389 181.245C300.759 181.13 301.112 181.007 301.482 180.876C300.613 178.211 299.701 175.587 298.807 173.02ZM298.807 173.02L297.723 173.389C298.624 175.92 299.512 178.539 300.389 181.245C300.759 181.13 301.112 181.007 301.482 180.876C300.613 178.211 299.701 175.587 298.807 173.02ZM298.807 173.02L297.723 173.389C298.624 175.92 299.512 178.539 300.389 181.245C300.759 181.13 301.112 181.007 301.482 180.876C300.613 178.211 299.701 175.587 298.807 173.02ZM289.459 176.12C289.33 175.767 289.218 175.423 289.089 175.07C288.126 172.372 287.154 169.773 286.217 167.313C286.079 166.977 285.941 166.632 285.812 166.296L285.185 164.656C284.815 164.771 284.445 164.877 284.067 164.976C284.29 165.525 284.497 166.066 284.72 166.616C284.849 166.96 284.987 167.305 285.124 167.657C286.079 170.117 287.042 172.708 287.988 175.406C288.117 175.742 288.238 176.095 288.358 176.439C289.218 178.785 290.009 181.212 290.8 183.688L291.979 183.975H292.108C292.113 183.954 292.113 183.931 292.108 183.91C291.23 181.31 290.353 178.686 289.459 176.152V176.12ZM298.807 173.02L297.723 173.389C298.624 175.92 299.512 178.539 300.389 181.245C300.759 181.13 301.112 181.007 301.482 180.876C300.613 178.211 299.701 175.587 298.807 173.02ZM298.807 173.02L297.723 173.389C298.624 175.92 299.512 178.539 300.389 181.245C300.759 181.13 301.112 181.007 301.482 180.876C300.613 178.211 299.701 175.587 298.807 173.02ZM298.807 173.02L297.723 173.389C298.624 175.92 299.512 178.539 300.389 181.245C300.759 181.13 301.112 181.007 301.482 180.876C300.613 178.211 299.701 175.587 298.807 173.02ZM303.245 186.55C302.769 184.987 302.29 183.439 301.808 181.909C301.697 181.564 301.585 181.212 301.482 180.876C300.622 178.178 299.701 175.554 298.807 173.02C298.687 172.667 298.558 172.331 298.429 171.979C297.457 169.273 296.468 166.665 295.522 164.221C295.384 163.869 295.247 163.533 295.118 163.188C294.937 162.721 294.748 162.262 294.567 161.819L293.484 162.163C293.664 162.622 293.845 163.098 294.034 163.565C294.172 163.893 294.292 164.238 294.43 164.59C295.393 167.05 296.365 169.642 297.354 172.348C294.645 173.266 291.884 174.184 289.089 175.07C289.218 175.423 289.33 175.767 289.459 176.12C292.262 175.226 295.014 174.307 297.723 173.389C298.624 175.92 299.512 178.539 300.389 181.245C300.51 181.597 300.622 181.933 300.725 182.286C301.146 183.598 301.585 184.918 301.963 186.263L303.245 186.55ZM313.565 186.616C312.791 183.91 311.974 181.245 311.114 178.645C313.943 177.62 316.686 176.603 319.318 175.595C319.198 175.25 319.077 174.906 318.965 174.57C316.342 175.562 313.599 176.579 310.778 177.604C309.918 174.898 308.972 172.266 308.061 169.74C307.923 169.387 307.803 169.043 307.682 168.699C306.693 165.976 305.696 163.377 304.715 160.933C304.578 160.581 304.44 160.244 304.32 159.9C304.122 159.424 303.924 158.965 303.743 158.49C303.399 158.654 303.081 158.785 302.772 158.924C302.772 158.924 302.729 158.924 302.703 158.924C302.901 159.383 303.081 159.843 303.262 160.31L303.675 161.343C304.638 163.803 305.635 166.378 306.633 169.1C303.973 170.068 301.241 171.033 298.437 171.995C298.566 172.348 298.695 172.684 298.816 173.036C301.611 172.069 304.354 171.109 307.011 170.15C307.932 172.676 308.843 175.308 309.729 178.014C309.841 178.358 309.961 178.694 310.073 179.047C310.922 181.644 311.736 184.298 312.515 187.009C312.619 187.362 312.722 187.714 312.816 188.059C312.816 188.157 312.859 188.264 312.894 188.362L314.132 188.543C314.055 188.256 313.969 187.96 313.891 187.723L313.565 186.616ZM320.376 175.193C320.264 174.84 320.144 174.504 320.032 174.152C319.109 171.446 318.183 168.819 317.254 166.271C317.134 165.935 317.005 165.583 316.876 165.246C315.861 162.508 314.837 159.892 313.866 157.465C313.728 157.112 313.59 156.792 313.453 156.448C313.212 155.857 312.971 155.283 312.739 154.709L311.698 155.16C311.931 155.718 312.154 156.284 312.395 156.866L312.799 157.883C313.788 160.343 314.794 162.918 315.809 165.648C315.938 165.993 316.067 166.337 316.188 166.69C317.134 169.215 318.06 171.842 318.965 174.57C319.077 174.906 319.198 175.25 319.318 175.595C320.178 178.186 321.038 180.851 321.821 183.565C321.872 183.77 321.932 183.975 322.001 184.197C322.113 183.934 322.233 183.647 322.345 183.377C322.457 183.106 322.577 182.827 322.689 182.557C321.958 180.064 321.193 177.62 320.393 175.226L320.376 175.193ZM326.396 162.647C326.258 162.311 326.129 161.958 326 161.622C324.96 158.867 323.928 156.267 322.939 153.848L322.526 152.84C322.208 152.085 321.907 151.356 321.614 150.65L320.582 151.134C320.875 151.823 321.176 152.536 321.442 153.266C321.58 153.594 321.717 153.939 321.855 154.275C322.835 156.735 323.867 159.301 324.925 162.057C325.037 162.393 325.166 162.737 325.304 163.073C325.983 164.877 326.654 166.747 327.333 168.666C327.514 168.034 327.694 167.411 327.866 166.78C327.419 165.402 326.912 164 326.413 162.68L326.396 162.647ZM331.513 149.06C331.195 148.297 330.653 147.19 330.343 146.419C329.975 146.527 329.615 146.661 329.268 146.821C329.621 147.641 330.128 148.715 330.472 149.511C330.61 149.839 330.747 150.175 330.885 150.527C331.023 150.88 331.195 151.257 331.358 151.643C331.427 151.151 331.47 150.691 331.513 150.265C331.556 149.839 331.573 149.543 331.582 149.224C331.582 149.191 331.556 149.15 331.53 149.092L331.513 149.06ZM265.843 172.2C263.435 172.84 261.022 173.449 258.602 174.029C258.671 174.086 258.748 174.135 258.843 174.201L259.161 174.389C259.438 174.549 259.725 174.692 260.021 174.816C262.091 174.318 264.161 173.794 266.23 173.241C266.11 172.872 265.981 172.528 265.843 172.2ZM331.53 149.109C331.186 149.265 330.842 149.42 330.489 149.56C328.056 150.601 325.415 151.708 322.543 152.889C322.199 153.02 321.846 153.168 321.494 153.315C318.957 154.349 316.291 155.406 313.47 156.497C313.126 156.645 312.773 156.776 312.412 156.915C309.832 157.907 307.132 158.932 304.337 159.949L303.253 160.343C300.622 161.316 297.91 162.281 295.118 163.237L294.034 163.615C291.351 164.533 288.599 165.451 285.812 166.345L284.72 166.681C282.003 167.559 279.233 168.412 276.438 169.24L275.32 169.56C272.56 170.38 269.765 171.15 266.961 171.921C267.082 172.257 267.211 172.61 267.348 172.946C270.169 172.192 272.961 171.405 275.725 170.585C276.094 170.486 276.456 170.38 276.825 170.265C279.641 169.439 282.407 168.592 285.124 167.723C286.079 170.183 287.042 172.774 287.988 175.472C288.358 175.365 288.719 175.242 289.089 175.119C288.126 172.421 287.154 169.822 286.217 167.362C288.994 166.468 291.746 165.558 294.43 164.64C295.393 167.1 296.365 169.691 297.354 172.397C294.645 173.315 291.884 174.234 289.089 175.119C289.218 175.472 289.33 175.816 289.459 176.169C292.262 175.275 295.014 174.357 297.723 173.438L298.807 173.069C301.602 172.102 304.345 171.142 307.003 170.183C307.364 170.035 307.717 169.92 308.078 169.789C310.881 168.764 313.599 167.747 316.205 166.739C316.084 166.386 315.955 166.042 315.826 165.697C313.218 166.703 310.509 167.72 307.699 168.748C306.71 166.025 305.713 163.426 304.732 160.982C307.519 159.949 310.228 158.932 312.816 157.932C313.805 160.392 314.812 162.967 315.826 165.697L316.893 165.296C315.878 162.557 314.855 159.941 313.883 157.514C316.704 156.431 319.387 155.365 321.907 154.324L322.956 153.898C325.828 152.725 328.486 151.61 330.902 150.618L331.53 150.355C331.53 149.986 331.59 149.634 331.599 149.314V149.142L331.53 149.109ZM306.59 169.133C303.93 170.101 301.198 171.066 298.394 172.028C297.422 169.322 296.433 166.714 295.487 164.271C298.274 163.303 300.989 162.338 303.632 161.376C304.629 163.795 305.627 166.394 306.624 169.117L306.59 169.133ZM325.983 161.671L324.942 162.106C322.362 163.131 319.696 164.205 316.858 165.296L315.792 165.697C313.183 166.703 310.474 167.72 307.665 168.748L306.607 169.133C303.947 170.101 301.215 171.066 298.411 172.028C298.059 172.159 297.689 172.282 297.336 172.397C294.627 173.315 291.867 174.234 289.072 175.119C288.702 175.242 288.341 175.365 287.971 175.472C285.236 176.341 282.464 177.186 279.655 178.006C279.285 178.104 278.915 178.219 278.554 178.325L274.452 179.482L274.985 179.637C275.492 179.769 275.991 179.908 276.499 180.056L278.915 179.367L280.007 179.039C282.811 178.219 285.597 177.399 288.341 176.497L289.442 176.161C292.245 175.267 294.997 174.348 297.706 173.43L298.79 173.061C301.585 172.093 304.328 171.134 306.986 170.175C307.347 170.027 307.699 169.912 308.061 169.781C310.864 168.756 313.582 167.739 316.188 166.731C316.549 166.591 316.901 166.46 317.254 166.312C320.092 165.219 322.787 164.153 325.338 163.114L326.396 162.688C327.402 162.286 328.382 161.868 329.337 161.483C329.449 161.048 329.552 160.597 329.672 160.162C328.497 160.649 327.279 161.146 326.017 161.655L325.983 161.671ZM320.015 174.201L318.948 174.619C316.325 175.611 313.582 176.628 310.761 177.653C309.901 174.947 308.955 172.315 308.043 169.789C307.682 169.92 307.33 170.035 306.968 170.183C307.889 172.708 308.8 175.341 309.686 178.047C307.003 179.014 304.257 179.974 301.447 180.925C301.077 181.056 300.725 181.179 300.355 181.294C297.637 182.212 294.868 183.117 292.047 184.008H291.944H292.073L294 184.467C296.261 183.746 298.489 183.008 300.69 182.27C301.052 182.147 301.421 182.024 301.774 181.892C304.595 180.949 307.347 179.982 310.03 179.014L311.096 178.629C313.926 177.604 316.669 176.587 319.301 175.578L320.359 175.177C322.302 174.43 324.211 173.692 326.035 172.971L326.447 171.626C324.418 172.495 322.268 173.332 320.049 174.184L320.015 174.201ZM321.803 183.614C319.146 184.615 316.377 185.648 313.547 186.665L312.472 187.042L309.987 187.919L312.206 188.297L312.756 188.092C313.109 187.977 313.479 187.846 313.831 187.714C316.54 186.739 319.163 185.779 321.709 184.812C321.786 184.631 321.881 184.443 321.958 184.246C322.036 184.049 322.19 183.696 322.302 183.426L321.803 183.614Z" fill="#37474F"/>
<path opacity="0.1" d="M326.705 170.929C323.971 179.9 320.814 188.067 319.352 188.723C315.861 190.273 278.141 181.113 263.839 176.243C278.193 180.277 314.76 185.804 318.123 184.229C320.436 183.147 325.261 173.709 326.705 170.929Z" fill="black"/>
<path d="M259.161 243.146C259.161 243.146 286.096 260.498 301.473 263.466C316.85 266.434 347.337 243.696 347.337 243.696C347.337 243.696 359.188 261.342 361.011 263.466C362.834 265.59 372.492 266.746 374.272 265.032C376.052 263.318 375.923 255.192 374.272 250.682C372.621 246.172 354.828 226.697 347.715 227.304C340.603 227.911 319.92 238.046 318.381 237.841C315.973 237.521 302.694 222.097 292.959 210.223" fill="#FF9925"/>
<path opacity="0.3" d="M259.161 243.146C259.161 243.146 286.096 260.498 301.473 263.466C316.85 266.434 347.337 243.696 347.337 243.696C347.337 243.696 359.188 261.342 361.011 263.466C362.834 265.59 372.492 266.746 374.272 265.032C376.052 263.318 375.923 255.192 374.272 250.682C372.621 246.172 354.828 226.697 347.715 227.304C340.603 227.911 319.92 238.046 318.381 237.841C315.973 237.521 302.694 222.097 292.959 210.223" fill="black"/>
<path opacity="0.1" d="M374.272 265.032C372.492 266.779 362.834 265.59 361.011 263.466C359.188 261.342 347.337 243.696 347.337 243.696C347.337 243.696 316.841 266.426 301.465 263.466C291.506 261.547 276.697 253.577 267.512 248.214C272.801 250.92 297.689 256.66 304.647 257.48C311.888 258.3 347.337 242.384 347.337 242.384C347.337 242.384 362.421 260.424 363.944 261.244C365.466 262.064 371.408 264.237 373.189 263.704C374.281 263.376 375.313 259.924 375.511 257.505C375.691 260.834 375.304 264.04 374.272 265.032Z" fill="black"/>
<path d="M366.799 257.841C369.508 259.481 372.449 262.761 371.322 266.041C371.133 262.761 368.682 260.448 366.799 257.841Z" fill="#263238"/>
<path d="M372.01 255.02C374.212 257.382 376.534 261.621 374.478 264.606C375.261 261.211 373.197 258.144 372.01 255.02Z" fill="#263238"/>
<path d="M265.387 247.64C275.535 252.462 285.666 257.48 296.287 261.277L298.945 262.097C299.4 262.195 300.518 262.49 300.948 262.589C314.708 264.557 335.632 250.535 347.337 243.679C338.307 250.313 328.838 256.611 318.346 261.014C312.627 263.245 306.177 265.418 299.899 263.974C294.791 262.712 289.975 260.473 285.279 258.292C278.451 255.069 271.846 251.469 265.396 247.632L265.387 247.64Z" fill="#263238"/>
<path d="M344.671 239.776C348.764 245.467 353.004 251.543 356.711 257.464C351.928 252.078 347.882 246.134 344.671 239.776Z" fill="#263238"/>
<path d="M269.326 252.56C272.904 253.224 276.206 254.2 279.758 255.02C276.098 255.242 272.456 254.383 269.326 252.56Z" fill="#263238"/>
<path d="M296.477 214.479L309.05 228.026C312.086 231.084 314.82 234.528 318.364 237.046C319.829 236.579 321.265 236.031 322.664 235.406C328.46 233.028 334.248 230.551 340.259 228.55C342.522 227.723 344.876 227.145 347.277 226.828C348.141 226.79 349.002 226.959 349.779 227.32C352.689 228.589 355.366 230.294 357.709 232.372C355.196 230.575 352.427 229.128 349.487 228.075C348.817 227.806 348.087 227.699 347.363 227.763C345.086 228.211 342.861 228.876 340.724 229.748C335.65 231.658 328.417 234.791 323.343 236.914C321.941 237.447 320.281 238.202 318.785 238.604C318.417 238.701 318.024 238.663 317.684 238.497C316.422 237.742 315.286 236.81 314.313 235.734C312.111 233.511 310.013 231.224 308.035 228.887C304.002 224.221 300.175 219.407 296.477 214.504V214.479Z" fill="#263238"/>
<path d="M301.86 217.251C302.902 218.209 303.733 219.354 304.306 220.621C304.879 221.888 305.182 223.251 305.197 224.631C304.131 222.064 302.849 219.817 301.86 217.251Z" fill="#263238"/>
<path d="M274.615 95.94C282.923 103.123 285.21 132.446 292.675 142.614C300.14 152.782 326.723 149.642 330.601 135.472C334.48 121.303 313.539 97.6866 301.344 95.12C289.149 92.5534 274.615 95.94 274.615 95.94Z" fill="#FF9925"/>
<path opacity="0.6" d="M274.615 95.94C282.923 103.123 285.21 132.446 292.675 142.614C300.14 152.782 326.723 149.642 330.601 135.472C334.48 121.303 313.539 97.6866 301.344 95.12C289.149 92.5534 274.615 95.94 274.615 95.94Z" fill="black"/>
<path d="M177.857 160.097C177.633 162.45 187.669 170.183 192.055 169.642C196.441 169.1 200.501 156.046 198.626 153.283C196.751 150.519 178.141 157.104 177.857 160.097Z" fill="#263238"/>
<path d="M190.387 167.223C193.896 169.683 203.915 178.424 208.103 176.161C211.663 174.111 212.472 169.387 213.168 165.738C212.953 169.617 212.308 174.586 208.481 176.858C203.45 179.506 193.861 170.453 190.421 167.223H190.387Z" fill="#263238"/>
<path d="M196.398 175.48C197.706 176.169 199.185 177.235 200.578 177.497C200.466 177.497 200.466 177.653 200.458 177.612C197.878 174.209 194.386 171.528 191.608 168.231C194.118 170.024 196.455 172.027 198.591 174.217C199.512 175.25 200.63 176.177 201.111 177.497C201.111 179.465 196.992 175.98 196.398 175.48Z" fill="#263238"/>
<path opacity="0.2" d="M241.514 123.82C251.705 118.285 261.294 123 266.506 131.676C270.728 138.736 268.982 149.232 259.196 154.545C249.409 159.859 238.298 154.685 234.333 148.051C230.368 141.417 230.48 129.798 241.514 123.82Z" fill="black"/>
<path d="M238.074 134.849C243.105 131.044 248.704 132.815 252.281 137.112C253.053 138.082 253.615 139.189 253.935 140.369C254.255 141.548 254.325 142.776 254.143 143.981C253.96 145.187 253.528 146.346 252.872 147.39C252.216 148.435 251.349 149.346 250.32 150.068C245.487 153.725 239.02 151.807 236.302 148.527C235.464 147.523 234.844 146.369 234.479 145.134C234.114 143.899 234.011 142.607 234.176 141.333C234.341 140.06 234.771 138.83 235.44 137.717C236.109 136.603 237.005 135.628 238.074 134.849Z" fill="#263238"/>
<path d="M238.34 136.12C243.07 132.545 248.325 134.201 251.696 138.252C252.422 139.164 252.95 140.204 253.25 141.312C253.55 142.42 253.617 143.574 253.446 144.707C253.274 145.84 252.869 146.929 252.253 147.911C251.636 148.894 250.822 149.749 249.856 150.429C245.315 153.865 239.235 152.069 236.672 148.978C235.886 148.033 235.305 146.948 234.963 145.787C234.621 144.626 234.525 143.412 234.681 142.215C234.836 141.019 235.239 139.863 235.868 138.817C236.496 137.77 237.337 136.854 238.34 136.12Z" fill="white"/>
<path d="M237.652 138.072C241.514 135.152 245.805 136.514 248.557 139.81C249.15 140.555 249.581 141.405 249.826 142.31C250.071 143.215 250.125 144.158 249.985 145.083C249.845 146.009 249.514 146.898 249.01 147.7C248.507 148.503 247.841 149.202 247.052 149.757C243.346 152.561 238.384 151.085 236.294 148.576C235.646 147.807 235.166 146.921 234.883 145.972C234.6 145.023 234.519 144.029 234.646 143.05C234.772 142.071 235.104 141.125 235.62 140.27C236.137 139.415 236.828 138.668 237.652 138.072Z" fill="#263238"/>
<path d="M55.1433 241.424C55.8141 235.799 58.5833 220.006 59.6153 218.645C60.6473 217.284 72.5669 222.638 77.6753 233.257L55.1433 241.424Z" fill="#FF9925"/>
<path opacity="0.1" d="M56.4504 240.949C56.9492 236.349 59.0304 223.557 59.77 222.441C60.5096 221.326 69.5654 226.14 73.3838 234.823L56.4504 240.949Z" fill="black"/>
<path d="M61.4987 239.071C61.4987 239.071 61.8685 236.8 61.4213 236.176C61.0845 235.741 60.7012 235.339 60.2775 234.979C60.981 235.158 61.6532 235.434 62.2727 235.799C62.6267 236.114 62.9518 236.457 63.2445 236.824C63.2425 235.905 62.8663 235.023 62.1953 234.364C61.3309 233.728 60.4001 233.178 59.4175 232.724C59.4175 232.724 63.0725 232.724 64.3711 233.495C65.6697 234.266 67.2263 234.807 67.9659 235.176C68.8754 235.485 69.8189 235.694 70.7781 235.799L61.4987 239.071Z" fill="#FF9925"/>
<path d="M110.08 308.181C108.085 309.566 101.05 321.866 102.478 326.221C103.905 330.575 112.574 345.942 113.219 346.86C113.864 347.778 118.551 359.98 118.336 360.546C118.121 361.112 112.411 363.334 112.411 364.236C112.411 365.138 126.687 364.966 126.902 364.572C127.094 363.566 127.189 362.545 127.185 361.522C127.185 361.317 134.607 344.548 135.897 341.481C137.187 338.414 133.756 323.785 133.756 322.424C133.756 321.063 132.079 292.937 110.08 308.181Z" fill="#FF9925"/>
<g opacity="0.1">
<path d="M110.08 308.181C108.085 309.566 101.05 321.866 102.478 326.221C103.905 330.575 112.574 345.942 113.219 346.86C113.864 347.778 118.551 359.98 118.336 360.546C118.121 361.112 112.411 363.334 112.411 364.236C112.411 365.138 126.687 364.966 126.902 364.572C127.094 363.566 127.189 362.545 127.185 361.522C127.185 361.317 134.607 344.548 135.897 341.481C137.187 338.414 133.756 323.785 133.756 322.424C133.756 321.063 132.079 292.937 110.08 308.181Z" fill="black"/>
</g>
<path d="M85.8452 308.181C83.85 309.566 79.8252 321.866 81.27 326.221C82.7148 330.575 94.9612 345.761 95.6062 346.721C96.2512 347.68 101.927 360.661 101.712 361.218C101.497 361.776 96.9478 363.637 96.9478 364.498C96.9478 365.359 111.568 364.974 111.783 364.58C112.07 363.1 112.268 361.605 112.376 360.103C112.376 359.898 120.305 347.213 121.595 344.146C122.885 341.079 126.463 328.853 126.463 327.492C126.463 326.13 107.835 292.937 85.8452 308.181Z" fill="#FF9925"/>
<path d="M194.91 279.964C198.952 283.663 205.789 298.701 206.211 303.671C206.632 308.64 203.571 332.461 203.932 333.486C206.345 338.067 208.998 342.531 211.878 346.86C212.308 347.5 214.149 349.919 214.209 350.197C214.424 351.149 213.065 354.076 212.566 354.691C212.067 355.306 202.668 363.014 202.1 362.473C201.532 361.932 203.639 356.643 203.639 356.298C203.639 355.954 187.678 347.524 186.577 346.655C184.513 345.015 169.446 328.886 168.018 320.235C166.591 311.584 182.397 268.517 194.91 279.964Z" fill="#FF9925"/>
<path opacity="0.1" d="M192.494 278.431L181.985 341.94C176.756 336.102 169.016 326.36 168.018 320.243C166.677 312.174 180.454 273.88 192.494 278.431Z" fill="black"/>
<path d="M95.9072 230.691C98.2636 226.746 110.613 213.561 113.185 213.348C115.756 213.134 121.466 230.691 122.395 234.438C123.324 238.185 122.395 251.133 122.395 251.133L95.9072 230.691Z" fill="#FF9925"/>
<path opacity="0.1" d="M96.6296 231.24C98.4872 228.116 107.62 217.456 109.659 217.3C111.697 217.144 116.212 231.027 116.943 233.987C117.674 236.947 117.029 246.992 117.029 246.992L96.6296 231.24Z" fill="black"/>
<path d="M101.076 234.684C101.076 234.684 103.493 232.962 103.759 231.97C103.924 231.25 104.011 230.517 104.017 229.78C104.466 230.614 104.785 231.507 104.963 232.429C104.941 233.058 104.861 233.683 104.722 234.299C105.222 233.887 105.631 233.385 105.926 232.822C106.221 232.26 106.397 231.646 106.442 231.019C106.348 229.613 106.103 228.22 105.711 226.861C105.711 226.861 108.954 230.445 109.306 232.388C109.659 234.331 109.943 237.152 110.209 238.202C110.476 239.251 111.413 242.622 111.413 242.622L101.076 234.684Z" fill="#FF9925"/>
<path d="M53.0019 255.135C52.4343 256.496 45.2619 267.804 45.7005 271.067C46.1391 274.331 54.1801 286.721 71.7069 293.257C71.7069 293.257 73.5645 294.749 73.9945 299.382C74.4245 304.015 72.1541 315.036 72.3691 318.349C72.5039 319.784 72.9427 321.179 73.6591 322.449C73.6591 322.449 73.4785 318.135 74.0461 317.233C74.0461 317.233 75.0265 322.973 75.9553 324.925C76.5794 326.005 77.5052 326.899 78.6299 327.508L76.7551 322.768C76.7551 322.768 79.6705 328.426 89.9819 333.387C98.7367 337.594 133.489 336.29 137.583 336.29C141.676 336.29 175.173 331.575 178.373 325.401C179.422 323.359 190.258 304.72 191.083 299.71C191.522 297.004 198.565 286.123 196.536 281.85C194.506 277.578 187.575 270.133 180.652 266.311C175.225 263.318 150.552 262.638 130.393 270.411C129.876 269.916 129.319 269.46 128.725 269.05C127.912 268.525 126.992 268.17 126.024 268.009C126.024 268.009 122.731 249.149 121.587 246.812C120.443 244.475 103.879 231.748 99.2269 230.026C94.5743 228.304 75.8091 230.658 72.2831 231.388C68.7571 232.117 56.0119 239.374 55.1519 241.457C54.2919 243.54 53.0019 255.135 53.0019 255.135Z" fill="#FF9925"/>
<path opacity="0.1" d="M108.558 336.2C100.663 335.839 93.3702 335.036 89.9818 333.404C79.98 328.566 76.9442 323.08 76.7636 322.768L78.6298 327.492C77.5052 326.883 76.5794 325.989 75.9552 324.909C75.0264 322.932 74.046 317.217 74.046 317.217C73.4784 318.119 73.659 322.432 73.659 322.432C72.9427 321.163 72.5039 319.768 72.369 318.332C72.154 315.052 74.4158 303.99 73.9944 299.366C73.573 294.741 71.7068 293.24 71.7068 293.24C54.1456 286.68 46.1304 274.323 45.7004 271.051C45.2704 267.779 52.46 256.496 53.0018 255.135C53.0018 255.135 54.2832 243.515 55.1432 241.424C53.9048 247.943 54.5498 255.84 54.4036 256.389C54.2574 256.939 49.3726 268.165 50.5336 271.067C51.6946 273.97 67.7336 290.879 77.6666 293.134C77.6666 293.134 80.9604 302.063 80.5562 306.155C80.152 310.247 80.9088 321.563 81.743 324.146C82.5772 326.729 86.172 328.672 89.3454 331.444C92.5188 334.216 107.612 336.052 108.558 336.2Z" fill="black"/>
<path d="M148.393 334.56C144.953 335.331 141.461 336.077 137.935 336.618C132.001 337.127 126.067 337.012 120.116 336.963C115.352 336.823 110.57 336.856 105.849 336.036C101.119 334.839 96.9995 332.436 93.1897 329.747C95.2451 330.878 97.3349 331.936 99.4849 332.863C105.883 336.044 113.142 335.47 120.125 335.749C126.007 335.806 131.95 336.061 137.824 335.88C140.249 335.626 145.89 334.855 148.376 334.56H148.393Z" fill="#263238"/>
<path d="M71.7068 293.257C73.1946 293.716 86.1118 292.51 88.9068 291.617C91.2288 290.887 104.757 281.645 115.059 274.93C121.079 271.002 126.558 267.837 126.979 267.837C126.979 267.837 130.015 269.247 130.419 269.944C130.419 269.944 124.399 271.773 122.636 272.806C120.873 273.839 115.661 277.086 115.661 277.086C115.661 277.086 95.3826 294.109 90.6698 295.126C85.957 296.143 73.0054 296.282 73.0054 296.282C72.5712 295.744 72.2234 295.147 71.9734 294.511C71.8358 293.954 71.7068 293.257 71.7068 293.257Z" fill="#455A64"/>
<path d="M114.827 277.562C117.517 275.454 120.394 273.575 123.427 271.945C125.675 271.167 128.01 270.641 130.385 270.379C128.174 271.199 125.93 271.814 123.754 272.675C120.968 274.126 117.734 276.34 114.819 277.595L114.827 277.562Z" fill="#263238"/>
<path d="M126.024 267.976C124.975 268.583 123.539 269.518 122.481 270.141C121.937 270.524 121.418 270.938 120.925 271.379C120.385 271.823 119.81 272.226 119.205 272.584C119.872 271.565 120.66 270.621 121.552 269.772C122.858 268.814 124.402 268.195 126.033 267.976H126.024Z" fill="#263238"/>
<path d="M63.9067 248.28C59.9851 247.894 57.6201 251.437 57.1471 255.791C56.7687 259.317 58.7123 263.171 62.4705 263.515C66.2287 263.86 69.0065 259.874 69.3505 256.562C69.6945 253.249 68.1551 248.698 63.9067 248.28Z" fill="#263238"/>
<path d="M64.1819 249.231C60.5011 248.87 58.2737 252.191 57.8351 256.291C57.4739 259.571 59.2971 263.204 62.8317 263.548C66.3663 263.892 68.9807 260.129 69.3161 256.988C69.6515 253.847 68.1809 249.616 64.1819 249.231Z" fill="white"/>
<path d="M65.3601 249.337C62.4705 249.059 60.7333 251.658 60.3893 254.864C60.1055 257.464 61.5331 260.276 64.3023 260.547C67.0715 260.817 69.1097 257.874 69.3763 255.43C69.6429 252.986 68.5163 249.641 65.3601 249.337Z" fill="#263238"/>
<path d="M93.1037 248.017C98.4357 247.041 101.91 250.477 102.822 255.02C103.008 256.039 102.98 257.083 102.738 258.091C102.496 259.099 102.045 260.051 101.412 260.891C100.78 261.731 99.9774 262.442 99.0529 262.983C98.1283 263.524 97.0998 263.883 96.0277 264.04C90.8677 264.975 86.8429 261.113 86.1463 257.644C85.9306 256.575 85.94 255.477 86.1741 254.412C86.4081 253.347 86.8622 252.337 87.5097 251.441C88.1573 250.545 88.9854 249.781 89.9458 249.193C90.9062 248.605 91.9797 248.205 93.1037 248.017Z" fill="#263238"/>
<path d="M92.7768 249.067C97.7992 248.148 101.059 251.363 101.919 255.627C102.089 256.582 102.058 257.561 101.828 258.505C101.598 259.449 101.174 260.34 100.579 261.126C99.9842 261.912 99.2314 262.577 98.3644 263.083C97.4974 263.589 96.5335 263.925 95.5288 264.073C90.7128 264.95 86.9288 261.326 86.2408 258.062C86.0426 257.062 86.055 256.034 86.2772 255.038C86.4994 254.042 86.927 253.098 87.5352 252.261C88.1433 251.424 88.9199 250.71 89.8197 250.162C90.7196 249.614 91.7247 249.241 92.7768 249.067Z" fill="white"/>
<path d="M94.8495 249.444C98.9431 248.698 101.609 251.322 102.314 254.823C102.453 255.603 102.427 256.402 102.239 257.173C102.051 257.944 101.704 258.671 101.218 259.313C100.732 259.955 100.117 260.498 99.4094 260.911C98.7015 261.324 97.9144 261.599 97.0941 261.719C95.4111 261.977 93.6885 261.611 92.2797 260.696C90.8708 259.781 89.8825 258.387 89.5175 256.799C89.3539 255.982 89.3625 255.142 89.5429 254.328C89.7232 253.513 90.0716 252.741 90.5679 252.057C91.0641 251.372 91.6982 250.789 92.4333 250.34C93.1684 249.892 93.9897 249.587 94.8495 249.444Z" fill="#263238"/>
<path d="M78.2599 258.48C78.2083 258.948 75.2843 260.686 74.9489 260.686C74.6135 260.686 71.6121 258.981 71.5089 258.521C71.4057 258.062 74.1577 257.874 74.8629 257.865C75.5681 257.857 78.3287 258.021 78.2599 258.48Z" fill="#263238"/>
<path d="M69.3762 261.842C69.8664 262.498 70.3566 263.146 70.8984 263.737C71.1526 264.039 71.441 264.314 71.7584 264.557C71.8794 264.642 72.0217 264.696 72.1712 264.712C72.3113 264.688 72.442 264.629 72.5496 264.54C72.8198 264.307 73.0441 264.029 73.2118 263.72C73.4029 263.385 73.5667 263.037 73.702 262.679C73.9928 261.95 74.2285 261.201 74.4072 260.44L74.7426 259.054L75.2414 260.399C75.5764 261.295 75.9907 262.162 76.4798 262.99C76.712 263.398 76.9856 263.782 77.2968 264.138C77.5637 264.477 77.9284 264.733 78.346 264.876H78.4836H78.6298C78.7371 264.868 78.8435 264.852 78.948 264.827C79.1719 264.772 79.3863 264.687 79.5844 264.573C80.0062 264.332 80.3935 264.04 80.7368 263.704C81.4437 263.006 82.0747 262.243 82.6202 261.424C82.2139 262.334 81.6786 263.187 81.0292 263.958C80.6962 264.358 80.3053 264.712 79.8682 265.008C79.3984 265.36 78.8023 265.522 78.2084 265.459C77.6364 265.324 77.1224 265.023 76.7378 264.598C76.3795 264.215 76.0572 263.804 75.7746 263.368C75.2351 262.503 74.783 261.591 74.4244 260.645L75.2844 260.604C75.0789 261.401 74.8116 262.182 74.4846 262.941C74.3115 263.326 74.1103 263.698 73.8826 264.056C73.6506 264.446 73.334 264.785 72.9538 265.049C72.7273 265.201 72.4572 265.284 72.1798 265.286C71.9088 265.252 71.656 265.137 71.4574 264.958C71.1268 264.68 70.8375 264.36 70.5974 264.007C70.1232 263.322 69.7145 262.597 69.3762 261.842Z" fill="#263238"/>
<path d="M55.7194 259.005C53.5694 258.915 51.4194 258.89 49.2694 258.915C47.1194 258.94 44.9694 258.989 42.8194 259.136C41.7444 259.177 40.678 259.268 39.603 259.341C38.528 259.415 37.4616 259.538 36.3952 259.653C34.2538 259.858 32.0952 260.17 29.9968 260.473C31.046 260.252 32.0952 260.014 33.1616 259.833C34.228 259.653 35.2858 259.481 36.3522 259.341C38.4936 259.046 40.6522 258.874 42.7936 258.735C44.935 258.595 47.0936 258.562 49.2694 258.603C50.3444 258.603 51.428 258.669 52.503 258.726C53.578 258.784 54.653 258.866 55.7194 259.005Z" fill="#263238"/>
<path d="M54.8852 260.227C53.922 260.301 52.9502 260.366 51.987 260.465C51.0238 260.563 50.052 260.637 49.0888 260.744C47.1624 260.94 45.236 261.154 43.3182 261.432C42.355 261.547 41.4004 261.695 40.4458 261.834L37.582 262.302L36.1458 262.548L34.7182 262.826C33.7636 262.982 32.8262 263.212 31.8716 263.384C33.7292 262.843 35.6126 262.367 37.5132 261.99C39.4138 261.613 41.3316 261.293 43.258 261.022C45.1844 260.752 47.1194 260.555 49.063 260.424C51.0066 260.293 52.9416 260.202 54.8852 260.227Z" fill="#263238"/>
<path d="M55.4787 261.367C54.6875 261.523 53.8963 261.67 53.1051 261.842C52.3139 262.015 51.5227 262.162 50.7315 262.343C49.1577 262.695 47.5839 263.04 46.0273 263.425C44.4707 263.81 42.8969 264.196 41.3403 264.606C39.7837 265.016 38.2271 265.426 36.6619 265.86C37.4187 265.573 38.1755 265.303 38.9409 265.04C39.7063 264.778 40.4717 264.532 41.2457 264.302C42.7851 263.819 44.3503 263.409 45.9155 263.023C47.4807 262.638 49.0717 262.31 50.6713 262.031C52.2709 261.752 53.8619 261.506 55.4787 261.367Z" fill="#263238"/>
<path d="M105.281 262.162C106.606 261.998 107.939 261.916 109.272 261.818C110.605 261.719 111.946 261.703 113.288 261.678C115.962 261.629 118.637 261.678 121.312 261.826C123.986 261.974 126.652 262.195 129.31 262.548C130.634 262.712 131.958 262.925 133.274 263.138C133.936 263.236 134.59 263.368 135.244 263.499L137.204 263.892C134.564 263.515 131.924 263.122 129.267 262.867C127.942 262.72 126.609 262.605 125.285 262.49C123.96 262.375 122.619 262.293 121.286 262.236C118.628 262.064 115.954 262.015 113.288 261.99C110.622 261.965 107.947 262.023 105.281 262.162Z" fill="#263238"/>
<path d="M106.322 263.671C108.73 263.671 111.138 263.769 113.546 263.942C115.954 264.114 118.353 264.376 120.744 264.671C123.135 264.967 125.517 265.377 127.873 265.852C130.23 266.328 132.578 266.877 134.891 267.492C133.704 267.271 132.543 266.984 131.356 266.779L129.585 266.434L127.813 266.131C126.626 265.918 125.44 265.737 124.253 265.549C123.066 265.36 121.879 265.196 120.684 265.049C118.302 264.721 115.911 264.458 113.52 264.229C112.325 264.106 111.121 263.999 109.925 263.901C108.73 263.802 107.5 263.753 106.322 263.671Z" fill="#263238"/>
<path d="M105.591 265.098C107.595 265.278 109.581 265.59 111.551 265.918C113.52 266.246 115.489 266.689 117.45 267.14C119.411 267.591 121.337 268.115 123.255 268.698C124.218 268.985 125.164 269.288 126.119 269.591C127.074 269.895 128.011 270.247 128.948 270.584C127.013 270.059 125.096 269.509 123.161 269.001C121.226 268.493 119.291 268.001 117.338 267.541C115.386 267.082 113.443 266.639 111.49 266.221C110.51 266.008 109.53 265.819 108.541 265.623C107.552 265.426 106.58 265.27 105.591 265.098Z" fill="#263238"/>
<path d="M59.8904 243.901C60.1025 243.302 60.4588 242.758 60.9307 242.314C61.4026 241.87 61.9771 241.537 62.608 241.342C63.22 241.109 63.8791 241.009 64.5369 241.05C65.1947 241.091 65.8345 241.272 66.4092 241.58C65.8548 241.867 65.2801 242.116 64.6892 242.326C63.1078 242.938 61.4912 243.464 59.8474 243.901H59.8904Z" fill="#263238"/>
<path d="M102.392 245.18C100.771 244.661 99.1828 244.053 97.6357 243.36C97.0717 243.123 96.5257 242.849 96.0017 242.54C96.5935 242.259 97.244 242.108 97.905 242.1C98.566 242.091 99.2206 242.225 99.8201 242.49C100.441 242.714 100.999 243.074 101.447 243.542C101.895 244.009 102.222 244.57 102.4 245.18H102.392Z" fill="#263238"/>
<path d="M80.2123 279.62C79.0526 278.523 78.0856 277.255 77.3485 275.864C77.3333 275.841 77.3112 275.822 77.2849 275.811C77.2586 275.799 77.2293 275.796 77.2008 275.8C77.1723 275.804 77.1458 275.817 77.1246 275.836C77.1034 275.854 77.0886 275.879 77.0819 275.905C77.0131 276.233 76.8325 277.176 76.8067 277.324C76.7551 277.242 76.7121 277.16 76.6691 277.078C76.5143 276.799 76.3853 276.512 76.2563 276.217C76.0125 275.629 75.8198 275.023 75.6801 274.405C75.541 273.79 75.4576 273.164 75.4307 272.535C75.4307 271.896 75.4307 271.256 75.4823 270.616C75.4823 270.616 75.4307 270.616 75.4221 270.616C75.2262 271.256 75.122 271.918 75.1125 272.584C75.0896 273.223 75.127 273.863 75.2243 274.495C75.3255 275.13 75.4926 275.753 75.7231 276.356C75.84 276.672 75.9749 276.981 76.1273 277.283C76.2544 277.583 76.4348 277.861 76.6605 278.103C76.8325 278.259 77.0905 278.103 77.0819 277.89C77.0733 277.677 77.2539 276.488 77.2883 276.299C77.5872 276.892 77.9473 277.455 78.3633 277.98C78.8654 278.61 79.4426 279.182 80.0833 279.686C80.1779 279.727 80.2639 279.62 80.2123 279.62Z" fill="#263238"/>
<path opacity="0.1" d="M112.462 256.57C114.661 259.988 116.394 263.658 117.622 267.492C118.482 270.772 112.23 274.872 109.728 276.512C111.267 275.167 112.789 273.814 114.191 272.371C115.257 271.149 116.659 269.911 116.883 268.271C116.69 267.091 116.349 265.938 115.868 264.835C114.853 262.154 113.563 259.218 112.497 256.529L112.462 256.57Z" fill="black"/>
<path d="M126.248 296.52C123.883 300.259 118.448 322.022 121.398 327.196C124.347 332.371 150.904 342.99 151.859 344.08C152.813 345.171 157.38 360.8 157.096 361.235C156.812 361.669 151.936 363.645 152.048 364.58C152.134 365.203 164.088 364.769 164.802 364.769C165.516 364.769 166.393 362.383 166.281 362.555C166.169 362.727 179.327 340.292 181.959 335.864C183.257 333.691 178.373 326.885 178.373 325.384C178.373 323.884 189.828 310.542 189.793 303.466C189.793 299.48 183.085 283.31 167.236 281.137C151.386 278.964 131.675 287.943 126.248 296.52Z" fill="#FF9925"/>
<path opacity="0.1" d="M158.395 361.522C156.236 362.53 154.301 363.293 153.76 364.244C153.656 364.424 153.837 364.638 154.198 364.875C152.934 364.834 152.074 364.744 152.048 364.58C151.928 363.645 156.813 361.686 157.096 361.235C157.38 360.784 152.796 345.171 151.859 344.08C150.922 342.99 124.339 332.371 121.398 327.196C119.342 323.588 121.398 311.895 123.582 303.892C123.04 307.787 123.926 323.211 127.349 326.549C130.772 329.886 154.258 339.98 155.17 341.202C156.082 342.424 159.805 360.874 158.395 361.522Z" fill="black"/>
<path d="M135.923 336.462C130.763 334.273 124.975 332.362 121.234 328.082C120.022 326.491 120.125 324.384 120.065 322.522C120.315 315.244 121.766 308.05 124.365 301.202C122.756 309.074 120.976 317.078 121.467 325.122C121.506 325.929 121.774 326.711 122.24 327.385C125.723 331.485 131.245 333.666 135.923 336.405V336.462Z" fill="#263238"/>
<path d="M121.733 303.671C122.037 305.946 122.152 308.241 122.077 310.534C121.533 309.472 121.222 308.316 121.163 307.136C121.104 305.956 121.298 304.777 121.733 303.671Z" fill="#263238"/>
<path d="M186.319 285.54C188.421 290.047 190.049 294.741 191.178 299.554C191.415 300.517 191.448 301.515 191.273 302.49C189.2 309.96 184.547 316.561 180.368 323.08C180.058 323.58 179.164 324.9 178.906 325.392C178.828 325.196 178.966 325.638 179.069 325.876C180.196 328.722 181.795 331.493 182.509 334.511C182.559 334.857 182.487 335.209 182.303 335.511C181.596 336.899 180.761 338.224 179.809 339.472C180.604 338.152 181.305 336.782 181.907 335.372C182.04 335.136 182.077 334.861 182.01 334.601C181.004 331.551 179.241 328.779 177.943 325.794C177.87 325.637 177.837 325.466 177.848 325.294C178.272 324.33 178.787 323.405 179.387 322.531C183.318 315.971 187.927 309.517 190.18 302.252C190.61 298.972 189.32 295.758 188.46 292.592C187.798 290.223 187.033 287.886 186.276 285.54H186.319Z" fill="#263238"/>
<path d="M213.34 233.995C214.33 233.327 215.259 232.581 216.118 231.765C216.023 231.945 214.45 234.873 213.865 235.225C213.28 235.578 211.044 237.562 210.038 238.194C203.235 248.132 194.171 260.334 191.178 269.108C188.598 276.602 191.178 281.908 191.178 281.908L181.598 273.609C179.878 271.363 175.173 264.212 176.893 252.093C178.613 239.973 188.804 225.033 179.061 208.395C169.317 191.757 159.65 196.595 145.589 204.295C145.589 204.295 159.943 181.983 185.321 181.54C201.782 181.245 215.327 215.914 214.149 229.379C214.385 228.99 214.567 228.574 214.69 228.14C214.914 227.025 215.009 221.72 215.009 221.72C215.009 221.72 216.479 226.869 216.049 229.1C215.748 230.74 214.149 232.56 212.859 234.135L213.34 233.995Z" fill="#FF9925"/>
<path d="M177.59 265.319C179.362 268.993 181.125 272.74 181.477 276.799C180.256 272.937 178.536 269.247 177.59 265.319Z" fill="#263238"/>
<path d="M179.74 271.067C180.103 272.262 180.021 273.54 179.508 274.684C179.435 273.474 179.513 272.26 179.74 271.067Z" fill="#263238"/>
<path d="M190.155 273.618L190.318 276.037C190.318 278.497 191.178 280.768 191.393 283.179C189.884 280.21 189.448 276.848 190.155 273.618Z" fill="#263238"/>
<path d="M190.275 278.21C191.139 279.25 191.926 280.346 192.631 281.49C191.477 280.684 190.646 279.527 190.275 278.21Z" fill="#263238"/>
<path opacity="0.1" d="M181.589 273.593C179.869 271.33 175.173 264.188 176.893 252.093C178.613 239.998 188.804 225.033 179.061 208.395C169.317 191.757 159.65 196.595 145.589 204.295C145.589 204.295 156.339 187.583 175.689 182.803C168.672 185.172 161.757 192.429 158.722 195.816C158.722 195.816 170.701 194.176 175.689 197.997C180.677 201.818 187.772 216.677 189.802 224.59C191.832 232.503 179.482 249.059 178.536 257.177C177.616 265.09 181.374 273.142 181.589 273.593Z" fill="black"/>
</svg>
